<svg width="186" height="32" viewBox="0 0 186 32" fill="none" xmlns="http://www.w3.org/2000/svg">
<g clip-path="url(#clip0)">
<path d="M170.967 34.12C172.093 34.12 173.005 33.1982 173.005 32.0612C173.005 30.9242 172.093 30.0024 170.967 30.0024C169.841 30.0024 168.929 30.9242 168.929 32.0612C168.929 33.1982 169.841 34.12 170.967 34.12Z" fill="black"/>
<path d="M160.618 34.12C161.744 34.12 162.657 33.1982 162.657 32.0612C162.657 30.9242 161.744 30.0024 160.618 30.0024C159.493 30.0024 158.58 30.9242 158.58 32.0612C158.58 33.1982 159.493 34.12 160.618 34.12Z" fill="black"/>
<path d="M150.271 34.12C151.396 34.12 152.309 33.1982 152.309 32.0612C152.309 30.9242 151.396 30.0024 150.271 30.0024C149.145 30.0024 148.232 30.9242 148.232 32.0612C148.232 33.1982 149.145 34.12 150.271 34.12Z" fill="black"/>
<path d="M139.923 34.12C141.049 34.12 141.961 33.1982 141.961 32.0612C141.961 30.9242 141.049 30.0024 139.923 30.0024C138.797 30.0024 137.885 30.9242 137.885 32.0612C137.885 33.1982 138.797 34.12 139.923 34.12Z" fill="black"/>
<path d="M129.574 34.12C130.7 34.12 131.613 33.1982 131.613 32.0612C131.613 30.9242 130.7 30.0024 129.574 30.0024C128.449 30.0024 127.536 30.9242 127.536 32.0612C127.536 33.1982 128.449 34.12 129.574 34.12Z" fill="black"/>
<path d="M119.226 34.12C120.352 34.12 121.265 33.1982 121.265 32.0612C121.265 30.9242 120.352 30.0024 119.226 30.0024C118.101 30.0024 117.188 30.9242 117.188 32.0612C117.188 33.1982 118.101 34.12 119.226 34.12Z" fill="black"/>
<path d="M108.878 34.12C110.003 34.12 110.916 33.1982 110.916 32.0612C110.916 30.9242 110.003 30.0024 108.878 30.0024C107.752 30.0024 106.839 30.9242 106.839 32.0612C106.839 33.1982 107.752 34.12 108.878 34.12Z" fill="black"/>
<path d="M98.53 34.12C99.6557 34.12 100.568 33.1982 100.568 32.0612C100.568 30.9242 99.6557 30.0024 98.53 30.0024C97.4043 30.0024 96.4917 30.9242 96.4917 32.0612C96.4917 33.1982 97.4043 34.12 98.53 34.12Z" fill="black"/>
<path d="M88.1818 34.12C89.3075 34.12 90.2201 33.1982 90.2201 32.0612C90.2201 30.9242 89.3075 30.0024 88.1818 30.0024C87.0561 30.0024 86.1436 30.9242 86.1436 32.0612C86.1436 33.1982 87.0561 34.12 88.1818 34.12Z" fill="black"/>
<path d="M77.8332 34.12C78.9589 34.12 79.8714 33.1982 79.8714 32.0612C79.8714 30.9242 78.9589 30.0024 77.8332 30.0024C76.7075 30.0024 75.7949 30.9242 75.7949 32.0612C75.7949 33.1982 76.7075 34.12 77.8332 34.12Z" fill="black"/>
<path d="M67.4855 34.12C68.6112 34.12 69.5238 33.1982 69.5238 32.0612C69.5238 30.9242 68.6112 30.0024 67.4855 30.0024C66.3598 30.0024 65.4473 30.9242 65.4473 32.0612C65.4473 33.1982 66.3598 34.12 67.4855 34.12Z" fill="black"/>
<path d="M57.1369 34.12C58.2626 34.12 59.1752 33.1982 59.1752 32.0612C59.1752 30.9242 58.2626 30.0024 57.1369 30.0024C56.0112 30.0024 55.0986 30.9242 55.0986 32.0612C55.0986 33.1982 56.0112 34.12 57.1369 34.12Z" fill="black"/>
<path d="M46.7892 34.12C47.9149 34.12 48.8275 33.1982 48.8275 32.0612C48.8275 30.9242 47.9149 30.0024 46.7892 30.0024C45.6635 30.0024 44.751 30.9242 44.751 32.0612C44.751 33.1982 45.6635 34.12 46.7892 34.12Z" fill="black"/>
<path d="M36.4411 34.12C37.5668 34.12 38.4794 33.1982 38.4794 32.0612C38.4794 30.9242 37.5668 30.0024 36.4411 30.0024C35.3154 30.0024 34.4028 30.9242 34.4028 32.0612C34.4028 33.1982 35.3154 34.12 36.4411 34.12Z" fill="black"/>
<path d="M26.0925 34.12C27.2182 34.12 28.1307 33.1982 28.1307 32.0612C28.1307 30.9242 27.2182 30.0024 26.0925 30.0024C24.9668 30.0024 24.0542 30.9242 24.0542 32.0612C24.0542 33.1982 24.9668 34.12 26.0925 34.12Z" fill="black"/>
<path d="M178.153 27.1644C178.333 26.0421 177.579 24.9846 176.468 24.8025C175.356 24.6204 174.31 25.3826 174.129 26.5049C173.949 27.6273 174.704 28.6847 175.815 28.8669C176.926 29.049 177.973 28.2868 178.153 27.1644Z" fill="black"/>
<path d="M165.793 28.8939C166.919 28.8939 167.831 27.9722 167.831 26.8351C167.831 25.6981 166.919 24.7764 165.793 24.7764C164.667 24.7764 163.755 25.6981 163.755 26.8351C163.755 27.9722 164.667 28.8939 165.793 28.8939Z" fill="black"/>
<path d="M155.445 28.8939C156.57 28.8939 157.483 27.9722 157.483 26.8351C157.483 25.6981 156.57 24.7764 155.445 24.7764C154.319 24.7764 153.406 25.6981 153.406 26.8351C153.406 27.9722 154.319 28.8939 155.445 28.8939Z" fill="black"/>
<path d="M145.097 28.8939C146.223 28.8939 147.135 27.9722 147.135 26.8351C147.135 25.6981 146.223 24.7764 145.097 24.7764C143.971 24.7764 143.059 25.6981 143.059 26.8351C143.059 27.9722 143.971 28.8939 145.097 28.8939Z" fill="black"/>
<path d="M134.748 28.8939C135.874 28.8939 136.786 27.9722 136.786 26.8351C136.786 25.6981 135.874 24.7764 134.748 24.7764C133.623 24.7764 132.71 25.6981 132.71 26.8351C132.71 27.9722 133.623 28.8939 134.748 28.8939Z" fill="black"/>
<path d="M126.412 27.1638C126.592 26.0414 125.838 24.984 124.726 24.8021C123.615 24.6201 122.568 25.3825 122.388 26.5049C122.208 27.6272 122.963 28.6846 124.074 28.8665C125.185 29.0485 126.232 28.2861 126.412 27.1638Z" fill="black"/>
<path d="M114.052 28.8939C115.178 28.8939 116.091 27.9722 116.091 26.8351C116.091 25.6981 115.178 24.7764 114.052 24.7764C112.927 24.7764 112.014 25.6981 112.014 26.8351C112.014 27.9722 112.927 28.8939 114.052 28.8939Z" fill="black"/>
<path d="M103.704 28.8939C104.829 28.8939 105.742 27.9722 105.742 26.8351C105.742 25.6981 104.829 24.7764 103.704 24.7764C102.578 24.7764 101.666 25.6981 101.666 26.8351C101.666 27.9722 102.578 28.8939 103.704 28.8939Z" fill="black"/>
<path d="M93.3556 28.8939C94.4813 28.8939 95.3939 27.9722 95.3939 26.8351C95.3939 25.6981 94.4813 24.7764 93.3556 24.7764C92.2299 24.7764 91.3174 25.6981 91.3174 26.8351C91.3174 27.9722 92.2299 28.8939 93.3556 28.8939Z" fill="black"/>
<path d="M83.0075 28.8939C84.1332 28.8939 85.0458 27.9722 85.0458 26.8351C85.0458 25.6981 84.1332 24.7764 83.0075 24.7764C81.8818 24.7764 80.9692 25.6981 80.9692 26.8351C80.9692 27.9722 81.8818 28.8939 83.0075 28.8939Z" fill="black"/>
<path d="M72.6594 28.8939C73.785 28.8939 74.6976 27.9722 74.6976 26.8351C74.6976 25.6981 73.785 24.7764 72.6594 24.7764C71.5337 24.7764 70.6211 25.6981 70.6211 26.8351C70.6211 27.9722 71.5337 28.8939 72.6594 28.8939Z" fill="black"/>
<path d="M62.3117 28.8939C63.4374 28.8939 64.35 27.9722 64.35 26.8351C64.35 25.6981 63.4374 24.7764 62.3117 24.7764C61.186 24.7764 60.2734 25.6981 60.2734 26.8351C60.2734 27.9722 61.186 28.8939 62.3117 28.8939Z" fill="black"/>
<path d="M51.9631 28.8939C53.0888 28.8939 54.0013 27.9722 54.0013 26.8351C54.0013 25.6981 53.0888 24.7764 51.9631 24.7764C50.8374 24.7764 49.9248 25.6981 49.9248 26.8351C49.9248 27.9722 50.8374 28.8939 51.9631 28.8939Z" fill="black"/>
<path d="M41.6149 28.8939C42.7406 28.8939 43.6532 27.9722 43.6532 26.8351C43.6532 25.6981 42.7406 24.7764 41.6149 24.7764C40.4892 24.7764 39.5767 25.6981 39.5767 26.8351C39.5767 27.9722 40.4892 28.8939 41.6149 28.8939Z" fill="black"/>
<path d="M31.2663 28.8939C32.392 28.8939 33.3046 27.9722 33.3046 26.8351C33.3046 25.6981 32.392 24.7764 31.2663 24.7764C30.1406 24.7764 29.228 25.6981 29.228 26.8351C29.228 27.9722 30.1406 28.8939 31.2663 28.8939Z" fill="black"/>
<path d="M170.967 23.6673C172.093 23.6673 173.005 22.7456 173.005 21.6086C173.005 20.4715 172.093 19.5498 170.967 19.5498C169.841 19.5498 168.929 20.4715 168.929 21.6086C168.929 22.7456 169.841 23.6673 170.967 23.6673Z" fill="black"/>
<path d="M160.618 23.6673C161.744 23.6673 162.657 22.7456 162.657 21.6086C162.657 20.4715 161.744 19.5498 160.618 19.5498C159.493 19.5498 158.58 20.4715 158.58 21.6086C158.58 22.7456 159.493 23.6673 160.618 23.6673Z" fill="black"/>
<path d="M150.271 23.6673C151.396 23.6673 152.309 22.7456 152.309 21.6086C152.309 20.4715 151.396 19.5498 150.271 19.5498C149.145 19.5498 148.232 20.4715 148.232 21.6086C148.232 22.7456 149.145 23.6673 150.271 23.6673Z" fill="black"/>
<path d="M139.923 23.6673C141.049 23.6673 141.961 22.7456 141.961 21.6086C141.961 20.4715 141.049 19.5498 139.923 19.5498C138.797 19.5498 137.885 20.4715 137.885 21.6086C137.885 22.7456 138.797 23.6673 139.923 23.6673Z" fill="black"/>
<path d="M129.574 23.6673C130.7 23.6673 131.613 22.7456 131.613 21.6086C131.613 20.4715 130.7 19.5498 129.574 19.5498C128.449 19.5498 127.536 20.4715 127.536 21.6086C127.536 22.7456 128.449 23.6673 129.574 23.6673Z" fill="black"/>
<path d="M119.226 23.6673C120.352 23.6673 121.265 22.7456 121.265 21.6086C121.265 20.4715 120.352 19.5498 119.226 19.5498C118.101 19.5498 117.188 20.4715 117.188 21.6086C117.188 22.7456 118.101 23.6673 119.226 23.6673Z" fill="black"/>
<path d="M108.878 23.6673C110.003 23.6673 110.916 22.7456 110.916 21.6086C110.916 20.4715 110.003 19.5498 108.878 19.5498C107.752 19.5498 106.839 20.4715 106.839 21.6086C106.839 22.7456 107.752 23.6673 108.878 23.6673Z" fill="black"/>
<path d="M98.53 23.6673C99.6557 23.6673 100.568 22.7456 100.568 21.6086C100.568 20.4715 99.6557 19.5498 98.53 19.5498C97.4043 19.5498 96.4917 20.4715 96.4917 21.6086C96.4917 22.7456 97.4043 23.6673 98.53 23.6673Z" fill="black"/>
<path d="M88.1818 23.6673C89.3075 23.6673 90.2201 22.7456 90.2201 21.6086C90.2201 20.4715 89.3075 19.5498 88.1818 19.5498C87.0561 19.5498 86.1436 20.4715 86.1436 21.6086C86.1436 22.7456 87.0561 23.6673 88.1818 23.6673Z" fill="black"/>
<path d="M77.8332 23.6673C78.9589 23.6673 79.8714 22.7456 79.8714 21.6086C79.8714 20.4715 78.9589 19.5498 77.8332 19.5498C76.7075 19.5498 75.7949 20.4715 75.7949 21.6086C75.7949 22.7456 76.7075 23.6673 77.8332 23.6673Z" fill="black"/>
<path d="M67.4855 23.6673C68.6112 23.6673 69.5238 22.7456 69.5238 21.6086C69.5238 20.4715 68.6112 19.5498 67.4855 19.5498C66.3598 19.5498 65.4473 20.4715 65.4473 21.6086C65.4473 22.7456 66.3598 23.6673 67.4855 23.6673Z" fill="black"/>
<path d="M57.1369 23.6673C58.2626 23.6673 59.1752 22.7456 59.1752 21.6086C59.1752 20.4715 58.2626 19.5498 57.1369 19.5498C56.0112 19.5498 55.0986 20.4715 55.0986 21.6086C55.0986 22.7456 56.0112 23.6673 57.1369 23.6673Z" fill="black"/>
<path d="M46.7892 23.6673C47.9149 23.6673 48.8275 22.7456 48.8275 21.6086C48.8275 20.4715 47.9149 19.5498 46.7892 19.5498C45.6635 19.5498 44.751 20.4715 44.751 21.6086C44.751 22.7456 45.6635 23.6673 46.7892 23.6673Z" fill="black"/>
<path d="M36.4411 23.6673C37.5668 23.6673 38.4794 22.7456 38.4794 21.6086C38.4794 20.4715 37.5668 19.5498 36.4411 19.5498C35.3154 19.5498 34.4028 20.4715 34.4028 21.6086C34.4028 22.7456 35.3154 23.6673 36.4411 23.6673Z" fill="black"/>
<path d="M26.0925 23.6673C27.2182 23.6673 28.1307 22.7456 28.1307 21.6086C28.1307 20.4715 27.2182 19.5498 26.0925 19.5498C24.9668 19.5498 24.0542 20.4715 24.0542 21.6086C24.0542 22.7456 24.9668 23.6673 26.0925 23.6673Z" fill="black"/>
<path d="M176.141 18.4413C177.267 18.4413 178.18 17.5195 178.18 16.3825C178.18 15.2455 177.267 14.3237 176.141 14.3237C175.016 14.3237 174.103 15.2455 174.103 16.3825C174.103 17.5195 175.016 18.4413 176.141 18.4413Z" fill="black"/>
<path d="M165.793 18.4413C166.919 18.4413 167.831 17.5195 167.831 16.3825C167.831 15.2455 166.919 14.3237 165.793 14.3237C164.667 14.3237 163.755 15.2455 163.755 16.3825C163.755 17.5195 164.667 18.4413 165.793 18.4413Z" fill="black"/>
<path d="M155.445 18.4413C156.57 18.4413 157.483 17.5195 157.483 16.3825C157.483 15.2455 156.57 14.3237 155.445 14.3237C154.319 14.3237 153.406 15.2455 153.406 16.3825C153.406 17.5195 154.319 18.4413 155.445 18.4413Z" fill="black"/>
<path d="M145.097 18.4413C146.223 18.4413 147.135 17.5195 147.135 16.3825C147.135 15.2455 146.223 14.3237 145.097 14.3237C143.971 14.3237 143.059 15.2455 143.059 16.3825C143.059 17.5195 143.971 18.4413 145.097 18.4413Z" fill="black"/>
<path d="M134.748 18.4413C135.874 18.4413 136.786 17.5195 136.786 16.3825C136.786 15.2455 135.874 14.3237 134.748 14.3237C133.623 14.3237 132.71 15.2455 132.71 16.3825C132.71 17.5195 133.623 18.4413 134.748 18.4413Z" fill="black"/>
<path d="M124.4 18.4413C125.526 18.4413 126.438 17.5195 126.438 16.3825C126.438 15.2455 125.526 14.3237 124.4 14.3237C123.274 14.3237 122.362 15.2455 122.362 16.3825C122.362 17.5195 123.274 18.4413 124.4 18.4413Z" fill="black"/>
<path d="M114.052 18.4413C115.178 18.4413 116.091 17.5195 116.091 16.3825C116.091 15.2455 115.178 14.3237 114.052 14.3237C112.927 14.3237 112.014 15.2455 112.014 16.3825C112.014 17.5195 112.927 18.4413 114.052 18.4413Z" fill="black"/>
<path d="M103.704 18.4413C104.829 18.4413 105.742 17.5195 105.742 16.3825C105.742 15.2455 104.829 14.3237 103.704 14.3237C102.578 14.3237 101.666 15.2455 101.666 16.3825C101.666 17.5195 102.578 18.4413 103.704 18.4413Z" fill="black"/>
<path d="M93.3556 18.4413C94.4813 18.4413 95.3939 17.5195 95.3939 16.3825C95.3939 15.2455 94.4813 14.3237 93.3556 14.3237C92.2299 14.3237 91.3174 15.2455 91.3174 16.3825C91.3174 17.5195 92.2299 18.4413 93.3556 18.4413Z" fill="black"/>
<path d="M83.0075 18.4413C84.1332 18.4413 85.0458 17.5195 85.0458 16.3825C85.0458 15.2455 84.1332 14.3237 83.0075 14.3237C81.8818 14.3237 80.9692 15.2455 80.9692 16.3825C80.9692 17.5195 81.8818 18.4413 83.0075 18.4413Z" fill="black"/>
<path d="M72.6594 18.4413C73.785 18.4413 74.6976 17.5195 74.6976 16.3825C74.6976 15.2455 73.785 14.3237 72.6594 14.3237C71.5337 14.3237 70.6211 15.2455 70.6211 16.3825C70.6211 17.5195 71.5337 18.4413 72.6594 18.4413Z" fill="black"/>
<path d="M62.3117 18.4413C63.4374 18.4413 64.35 17.5195 64.35 16.3825C64.35 15.2455 63.4374 14.3237 62.3117 14.3237C61.186 14.3237 60.2734 15.2455 60.2734 16.3825C60.2734 17.5195 61.186 18.4413 62.3117 18.4413Z" fill="black"/>
<path d="M51.9631 18.4413C53.0888 18.4413 54.0013 17.5195 54.0013 16.3825C54.0013 15.2455 53.0888 14.3237 51.9631 14.3237C50.8374 14.3237 49.9248 15.2455 49.9248 16.3825C49.9248 17.5195 50.8374 18.4413 51.9631 18.4413Z" fill="black"/>
<path d="M41.6149 18.4413C42.7406 18.4413 43.6532 17.5195 43.6532 16.3825C43.6532 15.2455 42.7406 14.3237 41.6149 14.3237C40.4892 14.3237 39.5767 15.2455 39.5767 16.3825C39.5767 17.5195 40.4892 18.4413 41.6149 18.4413Z" fill="black"/>
<path d="M31.2663 18.4413C32.392 18.4413 33.3046 17.5195 33.3046 16.3825C33.3046 15.2455 32.392 14.3237 31.2663 14.3237C30.1406 14.3237 29.228 15.2455 29.228 16.3825C29.228 17.5195 30.1406 18.4413 31.2663 18.4413Z" fill="black"/>
<path d="M170.967 13.2152C172.093 13.2152 173.005 12.2934 173.005 11.1564C173.005 10.0194 172.093 9.09766 170.967 9.09766C169.841 9.09766 168.929 10.0194 168.929 11.1564C168.929 12.2934 169.841 13.2152 170.967 13.2152Z" fill="black"/>
<path d="M160.618 13.2152C161.744 13.2152 162.657 12.2934 162.657 11.1564C162.657 10.0194 161.744 9.09766 160.618 9.09766C159.493 9.09766 158.58 10.0194 158.58 11.1564C158.58 12.2934 159.493 13.2152 160.618 13.2152Z" fill="black"/>
<path d="M150.271 13.2152C151.396 13.2152 152.309 12.2934 152.309 11.1564C152.309 10.0194 151.396 9.09766 150.271 9.09766C149.145 9.09766 148.232 10.0194 148.232 11.1564C148.232 12.2934 149.145 13.2152 150.271 13.2152Z" fill="black"/>
<path d="M139.923 13.2152C141.049 13.2152 141.961 12.2934 141.961 11.1564C141.961 10.0194 141.049 9.09766 139.923 9.09766C138.797 9.09766 137.885 10.0194 137.885 11.1564C137.885 12.2934 138.797 13.2152 139.923 13.2152Z" fill="black"/>
<path d="M129.574 13.2152C130.7 13.2152 131.613 12.2934 131.613 11.1564C131.613 10.0194 130.7 9.09766 129.574 9.09766C128.449 9.09766 127.536 10.0194 127.536 11.1564C127.536 12.2934 128.449 13.2152 129.574 13.2152Z" fill="black"/>
<path d="M119.226 13.2152C120.352 13.2152 121.265 12.2934 121.265 11.1564C121.265 10.0194 120.352 9.09766 119.226 9.09766C118.101 9.09766 117.188 10.0194 117.188 11.1564C117.188 12.2934 118.101 13.2152 119.226 13.2152Z" fill="black"/>
<path d="M108.878 13.2152C110.003 13.2152 110.916 12.2934 110.916 11.1564C110.916 10.0194 110.003 9.09766 108.878 9.09766C107.752 9.09766 106.839 10.0194 106.839 11.1564C106.839 12.2934 107.752 13.2152 108.878 13.2152Z" fill="black"/>
<path d="M98.53 13.2152C99.6557 13.2152 100.568 12.2934 100.568 11.1564C100.568 10.0194 99.6557 9.09766 98.53 9.09766C97.4043 9.09766 96.4917 10.0194 96.4917 11.1564C96.4917 12.2934 97.4043 13.2152 98.53 13.2152Z" fill="black"/>
<path d="M88.1818 13.2152C89.3075 13.2152 90.2201 12.2934 90.2201 11.1564C90.2201 10.0194 89.3075 9.09766 88.1818 9.09766C87.0561 9.09766 86.1436 10.0194 86.1436 11.1564C86.1436 12.2934 87.0561 13.2152 88.1818 13.2152Z" fill="black"/>
<path d="M77.8332 13.2152C78.9589 13.2152 79.8714 12.2934 79.8714 11.1564C79.8714 10.0194 78.9589 9.09766 77.8332 9.09766C76.7075 9.09766 75.7949 10.0194 75.7949 11.1564C75.7949 12.2934 76.7075 13.2152 77.8332 13.2152Z" fill="black"/>
<path d="M67.4855 13.2152C68.6112 13.2152 69.5238 12.2934 69.5238 11.1564C69.5238 10.0194 68.6112 9.09766 67.4855 9.09766C66.3598 9.09766 65.4473 10.0194 65.4473 11.1564C65.4473 12.2934 66.3598 13.2152 67.4855 13.2152Z" fill="black"/>
<path d="M57.1369 13.2152C58.2626 13.2152 59.1752 12.2934 59.1752 11.1564C59.1752 10.0194 58.2626 9.09766 57.1369 9.09766C56.0112 9.09766 55.0986 10.0194 55.0986 11.1564C55.0986 12.2934 56.0112 13.2152 57.1369 13.2152Z" fill="black"/>
<path d="M46.7892 13.2152C47.9149 13.2152 48.8275 12.2934 48.8275 11.1564C48.8275 10.0194 47.9149 9.09766 46.7892 9.09766C45.6635 9.09766 44.751 10.0194 44.751 11.1564C44.751 12.2934 45.6635 13.2152 46.7892 13.2152Z" fill="black"/>
<path d="M36.4411 13.2152C37.5668 13.2152 38.4794 12.2934 38.4794 11.1564C38.4794 10.0194 37.5668 9.09766 36.4411 9.09766C35.3154 9.09766 34.4028 10.0194 34.4028 11.1564C34.4028 12.2934 35.3154 13.2152 36.4411 13.2152Z" fill="black"/>
<path d="M26.0925 13.2152C27.2182 13.2152 28.1307 12.2934 28.1307 11.1564C28.1307 10.0194 27.2182 9.09766 26.0925 9.09766C24.9668 9.09766 24.0542 10.0194 24.0542 11.1564C24.0542 12.2934 24.9668 13.2152 26.0925 13.2152Z" fill="black"/>
<path d="M178.153 6.25966C178.333 5.13732 177.579 4.07984 176.468 3.89772C175.356 3.7156 174.31 4.4778 174.129 5.60014C173.949 6.72249 174.704 7.77996 175.815 7.96208C176.926 8.14421 177.973 7.38201 178.153 6.25966Z" fill="black"/>
<path d="M165.793 7.98911C166.919 7.98911 167.831 7.06737 167.831 5.93034C167.831 4.79332 166.919 3.87158 165.793 3.87158C164.667 3.87158 163.755 4.79332 163.755 5.93034C163.755 7.06737 164.667 7.98911 165.793 7.98911Z" fill="black"/>
<path d="M155.445 7.98911C156.57 7.98911 157.483 7.06737 157.483 5.93034C157.483 4.79332 156.57 3.87158 155.445 3.87158C154.319 3.87158 153.406 4.79332 153.406 5.93034C153.406 7.06737 154.319 7.98911 155.445 7.98911Z" fill="black"/>
<path d="M145.097 7.98911C146.223 7.98911 147.135 7.06737 147.135 5.93034C147.135 4.79332 146.223 3.87158 145.097 3.87158C143.971 3.87158 143.059 4.79332 143.059 5.93034C143.059 7.06737 143.971 7.98911 145.097 7.98911Z" fill="black"/>
<path d="M134.748 7.98911C135.874 7.98911 136.786 7.06737 136.786 5.93034C136.786 4.79332 135.874 3.87158 134.748 3.87158C133.623 3.87158 132.71 4.79332 132.71 5.93034C132.71 7.06737 133.623 7.98911 134.748 7.98911Z" fill="black"/>
<path d="M126.412 6.25897C126.592 5.1366 125.838 4.07924 124.726 3.8973C123.615 3.71535 122.568 4.47772 122.388 5.60009C122.208 6.72246 122.963 7.77982 124.074 7.96176C125.185 8.14371 126.232 7.38134 126.412 6.25897Z" fill="black"/>
<path d="M114.052 7.98911C115.178 7.98911 116.091 7.06737 116.091 5.93034C116.091 4.79332 115.178 3.87158 114.052 3.87158C112.927 3.87158 112.014 4.79332 112.014 5.93034C112.014 7.06737 112.927 7.98911 114.052 7.98911Z" fill="black"/>
<path d="M103.704 7.98911C104.829 7.98911 105.742 7.06737 105.742 5.93034C105.742 4.79332 104.829 3.87158 103.704 3.87158C102.578 3.87158 101.666 4.79332 101.666 5.93034C101.666 7.06737 102.578 7.98911 103.704 7.98911Z" fill="black"/>
<path d="M93.3556 7.98911C94.4813 7.98911 95.3939 7.06737 95.3939 5.93034C95.3939 4.79332 94.4813 3.87158 93.3556 3.87158C92.2299 3.87158 91.3174 4.79332 91.3174 5.93034C91.3174 7.06737 92.2299 7.98911 93.3556 7.98911Z" fill="black"/>
<path d="M83.0075 7.98911C84.1332 7.98911 85.0458 7.06737 85.0458 5.93034C85.0458 4.79332 84.1332 3.87158 83.0075 3.87158C81.8818 3.87158 80.9692 4.79332 80.9692 5.93034C80.9692 7.06737 81.8818 7.98911 83.0075 7.98911Z" fill="black"/>
<path d="M72.6594 7.98911C73.785 7.98911 74.6976 7.06737 74.6976 5.93034C74.6976 4.79332 73.785 3.87158 72.6594 3.87158C71.5337 3.87158 70.6211 4.79332 70.6211 5.93034C70.6211 7.06737 71.5337 7.98911 72.6594 7.98911Z" fill="black"/>
<path d="M62.3117 7.98911C63.4374 7.98911 64.35 7.06737 64.35 5.93034C64.35 4.79332 63.4374 3.87158 62.3117 3.87158C61.186 3.87158 60.2734 4.79332 60.2734 5.93034C60.2734 7.06737 61.186 7.98911 62.3117 7.98911Z" fill="black"/>
<path d="M51.9631 7.98911C53.0888 7.98911 54.0013 7.06737 54.0013 5.93034C54.0013 4.79332 53.0888 3.87158 51.9631 3.87158C50.8374 3.87158 49.9248 4.79332 49.9248 5.93034C49.9248 7.06737 50.8374 7.98911 51.9631 7.98911Z" fill="black"/>
<path d="M41.6149 7.98911C42.7406 7.98911 43.6532 7.06737 43.6532 5.93034C43.6532 4.79332 42.7406 3.87158 41.6149 3.87158C40.4892 3.87158 39.5767 4.79332 39.5767 5.93034C39.5767 7.06737 40.4892 7.98911 41.6149 7.98911Z" fill="black"/>
<path d="M31.2663 7.98911C32.392 7.98911 33.3046 7.06737 33.3046 5.93034C33.3046 4.79332 32.392 3.87158 31.2663 3.87158C30.1406 3.87158 29.228 4.79332 29.228 5.93034C29.228 7.06737 30.1406 7.98911 31.2663 7.98911Z" fill="black"/>
<path d="M170.967 2.76352C172.093 2.76352 173.005 1.84178 173.005 0.704758C173.005 -0.432265 172.093 -1.354 170.967 -1.354C169.841 -1.354 168.929 -0.432265 168.929 0.704758C168.929 1.84178 169.841 2.76352 170.967 2.76352Z" fill="black"/>
<path d="M160.618 2.76352C161.744 2.76352 162.657 1.84178 162.657 0.704758C162.657 -0.432265 161.744 -1.354 160.618 -1.354C159.493 -1.354 158.58 -0.432265 158.58 0.704758C158.58 1.84178 159.493 2.76352 160.618 2.76352Z" fill="black"/>
<path d="M150.271 2.76352C151.396 2.76352 152.309 1.84178 152.309 0.704758C152.309 -0.432265 151.396 -1.354 150.271 -1.354C149.145 -1.354 148.232 -0.432265 148.232 0.704758C148.232 1.84178 149.145 2.76352 150.271 2.76352Z" fill="black"/>
<path d="M139.923 2.76352C141.049 2.76352 141.961 1.84178 141.961 0.704758C141.961 -0.432265 141.049 -1.354 139.923 -1.354C138.797 -1.354 137.885 -0.432265 137.885 0.704758C137.885 1.84178 138.797 2.76352 139.923 2.76352Z" fill="black"/>
<path d="M129.574 2.76352C130.7 2.76352 131.613 1.84178 131.613 0.704758C131.613 -0.432265 130.7 -1.354 129.574 -1.354C128.449 -1.354 127.536 -0.432265 127.536 0.704758C127.536 1.84178 128.449 2.76352 129.574 2.76352Z" fill="black"/>
<path d="M119.226 2.76352C120.352 2.76352 121.265 1.84178 121.265 0.704758C121.265 -0.432265 120.352 -1.354 119.226 -1.354C118.101 -1.354 117.188 -0.432265 117.188 0.704758C117.188 1.84178 118.101 2.76352 119.226 2.76352Z" fill="black"/>
<path d="M108.878 2.76352C110.003 2.76352 110.916 1.84178 110.916 0.704758C110.916 -0.432265 110.003 -1.354 108.878 -1.354C107.752 -1.354 106.839 -0.432265 106.839 0.704758C106.839 1.84178 107.752 2.76352 108.878 2.76352Z" fill="black"/>
<path d="M98.53 2.76352C99.6557 2.76352 100.568 1.84178 100.568 0.704758C100.568 -0.432265 99.6557 -1.354 98.53 -1.354C97.4043 -1.354 96.4917 -0.432265 96.4917 0.704758C96.4917 1.84178 97.4043 2.76352 98.53 2.76352Z" fill="black"/>
<path d="M88.1818 2.76352C89.3075 2.76352 90.2201 1.84178 90.2201 0.704758C90.2201 -0.432265 89.3075 -1.354 88.1818 -1.354C87.0561 -1.354 86.1436 -0.432265 86.1436 0.704758C86.1436 1.84178 87.0561 2.76352 88.1818 2.76352Z" fill="black"/>
<path d="M77.8332 2.76352C78.9589 2.76352 79.8714 1.84178 79.8714 0.704758C79.8714 -0.432265 78.9589 -1.354 77.8332 -1.354C76.7075 -1.354 75.7949 -0.432265 75.7949 0.704758C75.7949 1.84178 76.7075 2.76352 77.8332 2.76352Z" fill="black"/>
<path d="M67.4855 2.76352C68.6112 2.76352 69.5238 1.84178 69.5238 0.704758C69.5238 -0.432265 68.6112 -1.354 67.4855 -1.354C66.3598 -1.354 65.4473 -0.432265 65.4473 0.704758C65.4473 1.84178 66.3598 2.76352 67.4855 2.76352Z" fill="black"/>
<path d="M57.1369 2.76352C58.2626 2.76352 59.1752 1.84178 59.1752 0.704758C59.1752 -0.432265 58.2626 -1.354 57.1369 -1.354C56.0112 -1.354 55.0986 -0.432265 55.0986 0.704758C55.0986 1.84178 56.0112 2.76352 57.1369 2.76352Z" fill="black"/>
<path d="M46.7892 2.76352C47.9149 2.76352 48.8275 1.84178 48.8275 0.704758C48.8275 -0.432265 47.9149 -1.354 46.7892 -1.354C45.6635 -1.354 44.751 -0.432265 44.751 0.704758C44.751 1.84178 45.6635 2.76352 46.7892 2.76352Z" fill="black"/>
<path d="M36.4411 2.76352C37.5668 2.76352 38.4794 1.84178 38.4794 0.704758C38.4794 -0.432265 37.5668 -1.354 36.4411 -1.354C35.3154 -1.354 34.4028 -0.432265 34.4028 0.704758C34.4028 1.84178 35.3154 2.76352 36.4411 2.76352Z" fill="black"/>
<path d="M26.0925 2.76352C27.2182 2.76352 28.1307 1.84178 28.1307 0.704758C28.1307 -0.432265 27.2182 -1.354 26.0925 -1.354C24.9668 -1.354 24.0542 -0.432265 24.0542 0.704758C24.0542 1.84178 24.9668 2.76352 26.0925 2.76352Z" fill="black"/>
<path d="M14.7121 34.12C15.8378 34.12 16.7503 33.1982 16.7503 32.0612C16.7503 30.9242 15.8378 30.0024 14.7121 30.0024C13.5864 30.0024 12.6738 30.9242 12.6738 32.0612C12.6738 33.1982 13.5864 34.12 14.7121 34.12Z" fill="black"/>
<path d="M4.36346 34.12C5.48916 34.12 6.40172 33.1982 6.40172 32.0612C6.40172 30.9242 5.48916 30.0024 4.36346 30.0024C3.23776 30.0024 2.3252 30.9242 2.3252 32.0612C2.3252 33.1982 3.23776 34.12 4.36346 34.12Z" fill="black"/>
<path d="M19.8859 28.8939C21.0116 28.8939 21.9242 27.9722 21.9242 26.8351C21.9242 25.6981 21.0116 24.7764 19.8859 24.7764C18.7602 24.7764 17.8477 25.6981 17.8477 26.8351C17.8477 27.9722 18.7602 28.8939 19.8859 28.8939Z" fill="black"/>
<path d="M9.53802 28.8939C10.6637 28.8939 11.5763 27.9722 11.5763 26.8351C11.5763 25.6981 10.6637 24.7764 9.53802 24.7764C8.41232 24.7764 7.49976 25.6981 7.49976 26.8351C7.49976 27.9722 8.41232 28.8939 9.53802 28.8939Z" fill="black"/>
<path d="M-0.810616 28.8939C0.315084 28.8939 1.22764 27.9722 1.22764 26.8351C1.22764 25.6981 0.315084 24.7764 -0.810616 24.7764C-1.93632 24.7764 -2.84888 25.6981 -2.84888 26.8351C-2.84888 27.9722 -1.93632 28.8939 -0.810616 28.8939Z" fill="black"/>
<path d="M14.7121 23.6673C15.8378 23.6673 16.7503 22.7456 16.7503 21.6086C16.7503 20.4715 15.8378 19.5498 14.7121 19.5498C13.5864 19.5498 12.6738 20.4715 12.6738 21.6086C12.6738 22.7456 13.5864 23.6673 14.7121 23.6673Z" fill="black"/>
<path d="M4.36346 23.6673C5.48916 23.6673 6.40172 22.7456 6.40172 21.6086C6.40172 20.4715 5.48916 19.5498 4.36346 19.5498C3.23776 19.5498 2.3252 20.4715 2.3252 21.6086C2.3252 22.7456 3.23776 23.6673 4.36346 23.6673Z" fill="black"/>
<path d="M19.8859 18.4413C21.0116 18.4413 21.9242 17.5195 21.9242 16.3825C21.9242 15.2455 21.0116 14.3237 19.8859 14.3237C18.7602 14.3237 17.8477 15.2455 17.8477 16.3825C17.8477 17.5195 18.7602 18.4413 19.8859 18.4413Z" fill="black"/>
<path d="M9.53802 18.4413C10.6637 18.4413 11.5763 17.5195 11.5763 16.3825C11.5763 15.2455 10.6637 14.3237 9.53802 14.3237C8.41232 14.3237 7.49976 15.2455 7.49976 16.3825C7.49976 17.5195 8.41232 18.4413 9.53802 18.4413Z" fill="black"/>
<path d="M-0.810616 18.4413C0.315084 18.4413 1.22764 17.5195 1.22764 16.3825C1.22764 15.2455 0.315084 14.3237 -0.810616 14.3237C-1.93632 14.3237 -2.84888 15.2455 -2.84888 16.3825C-2.84888 17.5195 -1.93632 18.4413 -0.810616 18.4413Z" fill="black"/>
<path d="M14.7121 13.2152C15.8378 13.2152 16.7503 12.2934 16.7503 11.1564C16.7503 10.0194 15.8378 9.09766 14.7121 9.09766C13.5864 9.09766 12.6738 10.0194 12.6738 11.1564C12.6738 12.2934 13.5864 13.2152 14.7121 13.2152Z" fill="black"/>
<path d="M4.36346 13.2152C5.48916 13.2152 6.40172 12.2934 6.40172 11.1564C6.40172 10.0194 5.48916 9.09766 4.36346 9.09766C3.23776 9.09766 2.3252 10.0194 2.3252 11.1564C2.3252 12.2934 3.23776 13.2152 4.36346 13.2152Z" fill="black"/>
<path d="M19.8859 7.98911C21.0116 7.98911 21.9242 7.06737 21.9242 5.93034C21.9242 4.79332 21.0116 3.87158 19.8859 3.87158C18.7602 3.87158 17.8477 4.79332 17.8477 5.93034C17.8477 7.06737 18.7602 7.98911 19.8859 7.98911Z" fill="black"/>
<path d="M9.53802 7.98911C10.6637 7.98911 11.5763 7.06737 11.5763 5.93034C11.5763 4.79332 10.6637 3.87158 9.53802 3.87158C8.41232 3.87158 7.49976 4.79332 7.49976 5.93034C7.49976 7.06737 8.41232 7.98911 9.53802 7.98911Z" fill="black"/>
<path d="M-0.810616 7.98911C0.315084 7.98911 1.22764 7.06737 1.22764 5.93034C1.22764 4.79332 0.315084 3.87158 -0.810616 3.87158C-1.93632 3.87158 -2.84888 4.79332 -2.84888 5.93034C-2.84888 7.06737 -1.93632 7.98911 -0.810616 7.98911Z" fill="black"/>
<path d="M14.7121 2.76352C15.8378 2.76352 16.7503 1.84178 16.7503 0.704758C16.7503 -0.432265 15.8378 -1.354 14.7121 -1.354C13.5864 -1.354 12.6738 -0.432265 12.6738 0.704758C12.6738 1.84178 13.5864 2.76352 14.7121 2.76352Z" fill="black"/>
<path d="M4.36346 2.76352C5.48916 2.76352 6.40172 1.84178 6.40172 0.704758C6.40172 -0.432265 5.48916 -1.354 4.36346 -1.354C3.23776 -1.354 2.3252 -0.432265 2.3252 0.704758C2.3252 1.84178 3.23776 2.76352 4.36346 2.76352Z" fill="black"/>
<path d="M181.302 34.1082C182.428 34.1082 183.34 33.1865 183.34 32.0495C183.34 30.9125 182.428 29.9907 181.302 29.9907C180.176 29.9907 179.264 30.9125 179.264 32.0495C179.264 33.1865 180.176 34.1082 181.302 34.1082Z" fill="black"/>
<path d="M186.476 28.8822C187.601 28.8822 188.514 27.9604 188.514 26.8234C188.514 25.6864 187.601 24.7646 186.476 24.7646C185.35 24.7646 184.438 25.6864 184.438 26.8234C184.438 27.9604 185.35 28.8822 186.476 28.8822Z" fill="black"/>
<path d="M181.302 23.6556C182.428 23.6556 183.34 22.7339 183.34 21.5968C183.34 20.4598 182.428 19.5381 181.302 19.5381C180.176 19.5381 179.264 20.4598 179.264 21.5968C179.264 22.7339 180.176 23.6556 181.302 23.6556Z" fill="black"/>
<path d="M186.476 18.4295C187.601 18.4295 188.514 17.5078 188.514 16.3708C188.514 15.2338 187.601 14.312 186.476 14.312C185.35 14.312 184.438 15.2338 184.438 16.3708C184.438 17.5078 185.35 18.4295 186.476 18.4295Z" fill="black"/>
<path d="M181.302 13.2035C182.428 13.2035 183.34 12.2817 183.34 11.1447C183.34 10.0077 182.428 9.08594 181.302 9.08594C180.176 9.08594 179.264 10.0077 179.264 11.1447C179.264 12.2817 180.176 13.2035 181.302 13.2035Z" fill="black"/>
<path d="M186.476 7.97739C187.601 7.97739 188.514 7.05565 188.514 5.91863C188.514 4.7816 187.601 3.85986 186.476 3.85986C185.35 3.85986 184.438 4.7816 184.438 5.91863C184.438 7.05565 185.35 7.97739 186.476 7.97739Z" fill="black"/>
<path d="M181.302 2.7518C182.428 2.7518 183.34 1.83006 183.34 0.693039C183.34 -0.443984 182.428 -1.36572 181.302 -1.36572C180.176 -1.36572 179.264 -0.443984 179.264 0.693039C179.264 1.83006 180.176 2.7518 181.302 2.7518Z" fill="black"/>
</g>
<defs>
<clipPath id="clip0">
<rect width="186" height="32" rx="16" fill="white"/>
</clipPath>
</defs>
</svg>
