<svg width="122" height="127" viewBox="0 0 122 127" fill="none" xmlns="http://www.w3.org/2000/svg">
<g clip-path="url(#clip0)">
<path d="M83.057 81.709L78.415 89.74L68.769 92.373L66.136 82.72L70.778 74.689L83.057 81.709Z" fill="#FF5534"/>
<path d="M100.176 51.7848L84.5149 78.8788L72.3889 71.8528L88.0499 44.7588L100.176 51.7848Z" fill="#FFD400"/>
<path d="M117.445 21.8621L101.784 48.9561L89.6521 41.9231L105.313 14.8291L117.445 21.8621Z" fill="#FF5534"/>
<path d="M86.332 82.0839V123.734H3.21094V3.21094H86.332V41.0389L86.0389 41.6299L73.5629 63.3069H15.9979C15.5724 63.3059 15.1639 63.4738 14.8622 63.7738C14.5605 64.0739 14.3902 64.4814 14.3889 64.9069C14.3887 65.1183 14.4301 65.3276 14.5109 65.523C14.5916 65.7183 14.7102 65.8958 14.8596 66.0453C15.0091 66.1947 15.1866 66.3132 15.382 66.394C15.5773 66.4747 15.7866 66.5162 15.9979 66.5159H71.751L68.756 71.5839L63.644 80.5689H15.9979C15.7866 80.5687 15.5773 80.6101 15.382 80.6909C15.1866 80.7716 15.0091 80.8901 14.8596 81.0396C14.7102 81.1891 14.5916 81.3666 14.5109 81.5619C14.4301 81.7572 14.3887 81.9665 14.3889 82.1779C14.3902 82.6034 14.5605 83.011 14.8622 83.311C15.1639 83.611 15.5724 83.779 15.9979 83.7779H62.9979L66.139 94.6259L66.158 94.7019C66.232 95.0191 66.4074 95.3036 66.6574 95.5123C66.9075 95.721 67.2186 95.8427 67.5439 95.8589C67.7475 95.7984 67.9559 95.7559 68.1669 95.7319L79.842 92.5969L79.918 92.5779C80.1048 92.5411 80.2805 92.4617 80.4316 92.3458C80.5827 92.23 80.705 92.0808 80.7889 91.9099L86.332 82.0839ZM75.1509 47.6459C75.1509 47.2216 74.9824 46.8146 74.6823 46.5146C74.3823 46.2145 73.9753 46.0459 73.551 46.0459H15.9979C15.5724 46.0449 15.1639 46.2128 14.8622 46.5128C14.5605 46.8129 14.3902 47.2204 14.3889 47.6459C14.3894 48.0725 14.5592 48.4814 14.8608 48.7831C15.1625 49.0847 15.5714 49.2544 15.9979 49.2549H73.551C73.9761 49.2525 74.3831 49.082 74.6829 48.7805C74.9827 48.479 75.1509 48.0711 75.1509 47.6459V47.6459ZM66.522 103.762C66.5204 103.336 66.3504 102.927 66.049 102.626C65.7475 102.325 65.3392 102.155 64.913 102.153H59.158C58.9491 102.156 58.7431 102.201 58.552 102.286C58.3609 102.37 58.1884 102.491 58.0449 102.643L53.7449 106.943L47.564 97.0809C47.4508 96.8926 47.2955 96.7331 47.1101 96.6151C46.9248 96.4971 46.7145 96.4238 46.496 96.4009H46.3879L46.288 96.3819C46.212 96.3759 46.1419 96.3689 46.0649 96.3689C45.8962 96.3658 45.7289 96.4021 45.5767 96.4751C45.4244 96.548 45.2914 96.6554 45.188 96.7889L45.1429 96.8459L39.8269 102.156H31.8209C31.3944 102.156 30.9855 102.326 30.6838 102.628C30.3822 102.929 30.2124 103.338 30.2119 103.765C30.2132 104.19 30.3835 104.598 30.6852 104.898C30.9869 105.198 31.3954 105.366 31.8209 105.365H40.45C40.6596 105.362 40.8666 105.316 41.0587 105.232C41.2508 105.148 41.4243 105.027 41.569 104.875L45.861 100.583L52.048 110.445C52.1601 110.634 52.3151 110.794 52.5007 110.913C52.6862 111.031 52.897 111.103 53.116 111.125H53.402C53.6117 111.121 53.8184 111.075 54.0098 110.989C54.2011 110.903 54.3729 110.779 54.515 110.625L59.78 105.36H64.9109C65.3368 105.361 65.7459 105.194 66.0484 104.894C66.3509 104.594 66.5223 104.187 66.525 103.761L66.522 103.762ZM60.7609 24.6279C60.762 24.2024 60.5941 23.7939 60.2941 23.4922C59.994 23.1905 59.5864 23.0202 59.1609 23.0189H30.382C29.9565 23.0202 29.5489 23.1905 29.2489 23.4922C28.9489 23.7939 28.7809 24.2024 28.782 24.6279C28.782 25.0523 28.9506 25.4592 29.2506 25.7593C29.5507 26.0594 29.9576 26.2279 30.382 26.2279H59.1609C59.3714 26.2283 59.5799 26.1872 59.7744 26.1069C59.9689 26.0266 60.1457 25.9087 60.2946 25.76C60.4435 25.6113 60.5616 25.4346 60.6422 25.2402C60.7227 25.0458 60.7641 24.8374 60.764 24.6269L60.7609 24.6279Z" fill="#FFD400"/>
<path d="M121.076 20.8439L121.114 21.0159L121.19 21.1689C121.232 21.458 121.185 21.7529 121.056 22.0149L103.811 51.9009L89.5421 76.6619V125.344C89.5415 125.77 89.3718 126.179 89.0702 126.481C88.7686 126.783 88.3596 126.952 87.933 126.953H1.60706C1.18081 126.951 0.772473 126.781 0.471069 126.48C0.169665 126.178 -0.000372465 125.77 -0.00195312 125.344V1.60392C0.000425127 1.17875 0.171046 0.771792 0.472534 0.47199C0.774023 0.172188 1.18188 0.00390461 1.60706 0.00391126H87.933C88.3585 0.00284876 88.7671 0.1708 89.0688 0.47083C89.3705 0.77086 89.5407 1.17842 89.5421 1.60392V35.7119L103.258 11.9239C103.417 11.6827 103.63 11.4822 103.881 11.3386C104.132 11.195 104.413 11.1122 104.701 11.0969C104.936 11.0974 105.166 11.1669 105.362 11.2969L105.432 11.3409L120.394 19.9759C120.567 20.0587 120.718 20.1801 120.836 20.3305C120.954 20.481 121.036 20.6567 121.076 20.8439V20.8439ZM101.784 48.9559L117.445 21.8619L105.313 14.8289L89.652 41.9229L101.784 48.9559ZM84.514 78.8799L100.175 51.7859L88.0491 44.7599L72.3881 71.8539L84.514 78.8799ZM86.3331 123.734V82.0839L80.7881 91.9149C80.7041 92.0858 80.5818 92.2349 80.4307 92.3508C80.2797 92.4667 80.1039 92.5461 79.9171 92.5829L79.8411 92.6019L68.1661 95.7369C67.9551 95.7609 67.7466 95.8034 67.5431 95.8639C67.2178 95.8477 66.9065 95.726 66.6565 95.5173C66.4064 95.3086 66.2311 95.0241 66.157 94.7069L66.1381 94.6309L62.9971 83.7829H15.9971C15.5716 83.784 15.163 83.616 14.8613 83.316C14.5596 83.016 14.3894 82.6084 14.3881 82.1829C14.3878 81.9716 14.4292 81.7622 14.51 81.5669C14.5908 81.3715 14.7093 81.1941 14.8588 81.0446C15.0082 80.8951 15.1856 80.7766 15.381 80.6959C15.5763 80.6151 15.7857 80.5737 15.9971 80.5739H63.6431L68.7551 71.5889L71.7501 66.5209H15.9971C15.7857 66.5212 15.5763 66.4798 15.381 66.399C15.1856 66.3182 15.0082 66.1997 14.8588 66.0502C14.7093 65.9008 14.5908 65.7233 14.51 65.528C14.4292 65.3326 14.3878 65.1233 14.3881 64.9119C14.3894 64.4864 14.5596 64.0788 14.8613 63.7788C15.163 63.4788 15.5716 63.3109 15.9971 63.3119H73.5621L86.04 41.6299L86.3331 41.0389V3.21091H3.21204V123.73L86.3331 123.734ZM78.4161 89.7399L83.058 81.7089L70.7791 74.6889L66.1371 82.7199L68.7701 92.3729L78.4161 89.7399Z" fill="black"/>
<path d="M73.5499 46.043C73.9743 46.043 74.3813 46.2115 74.6813 46.5116C74.9814 46.8117 75.15 47.2186 75.15 47.643C75.15 48.0682 74.9817 48.476 74.6819 48.7775C74.3821 49.079 73.9751 49.2496 73.5499 49.252H15.9969C15.5704 49.2515 15.1614 49.0818 14.8597 48.7801C14.5581 48.4785 14.3885 48.0696 14.3879 47.643C14.3893 47.2175 14.5595 46.8099 14.8612 46.5099C15.1629 46.2099 15.5714 46.0419 15.9969 46.043H73.5499Z" fill="black"/>
<path d="M59.161 23.019C59.5865 23.0204 59.994 23.1906 60.2941 23.4923C60.5941 23.794 60.7621 24.2025 60.761 24.628C60.761 25.0524 60.5924 25.4593 60.2924 25.7594C59.9923 26.0595 59.5854 26.228 59.161 26.228H30.382C29.9576 26.228 29.5507 26.0595 29.2506 25.7594C28.9506 25.4593 28.782 25.0524 28.782 24.628C28.7809 24.2025 28.9489 23.794 29.2489 23.4923C29.5489 23.1906 29.9565 23.0204 30.382 23.019H59.161Z" fill="black"/>
<path d="M46.502 96.3979C46.7205 96.4207 46.9307 96.494 47.1161 96.6121C47.3014 96.7301 47.4568 96.8895 47.5699 97.0779L53.751 106.94L58.051 102.64C58.1945 102.488 58.3669 102.367 58.558 102.283C58.7492 102.198 58.9551 102.153 59.1639 102.15H64.9189C65.3452 102.151 65.7535 102.321 66.0549 102.623C66.3563 102.924 66.5264 103.333 66.528 103.759C66.5256 104.184 66.355 104.591 66.0535 104.891C65.752 105.191 65.3441 105.359 64.9189 105.359H59.787L54.522 110.624C54.38 110.778 54.2081 110.902 54.0168 110.988C53.8255 111.074 53.6186 111.12 53.4089 111.124H53.123C52.9041 111.102 52.6932 111.03 52.5077 110.912C52.3221 110.793 52.1671 110.633 52.055 110.444L45.868 100.582L41.576 104.874C41.4313 105.026 41.2578 105.147 41.0657 105.231C40.8736 105.315 40.6667 105.36 40.457 105.364H31.828C31.4025 105.365 30.994 105.197 30.6923 104.897C30.3905 104.597 30.2203 104.189 30.219 103.764C30.2195 103.337 30.3892 102.928 30.6908 102.627C30.9924 102.325 31.4014 102.155 31.828 102.155H39.834L45.15 96.8449L45.194 96.7879C45.2975 96.6543 45.4307 96.5467 45.5832 96.4738C45.7356 96.4009 45.903 96.3646 46.072 96.3679C46.148 96.3679 46.218 96.3739 46.295 96.3809L46.395 96.3999L46.502 96.3979Z" fill="black"/>
</g>
<defs>
<clipPath id="clip0">
<rect width="121.211" height="126.952" fill="white"/>
</clipPath>
</defs>
</svg>
