<svg xmlns="http://www.w3.org/2000/svg" width="154.001" height="122.62" viewBox="0 0 154.001 122.62">
  <defs>
    <style>
      .cls-1 {
        fill: #003ff8;
      }

      .cls-2 {
        fill: #f0583a;
      }

      .cls-3 {
        fill: #18181e;
      }
    </style>
  </defs>
  <g id="Heart_Bubble" data-name="Heart Bubble" transform="translate(174.999 -111.971)">
    <g id="Group_1977" data-name="Group 1977" transform="translate(-174.999 111.971)">
      <g id="Group_1976" data-name="Group 1976">
        <path id="Path_4195" data-name="Path 4195" class="cls-1" d="M-155.664,112.721a18.585,18.585,0,0,0-18.585,18.585v66.067a18.584,18.584,0,0,0,18.583,18.583h71.9V229.29a2.241,2.241,0,0,0,3.5,1.858l22.51-15.192h15.123a18.584,18.584,0,0,0,18.583-18.583V131.3a18.582,18.582,0,0,0-18.583-18.583Z" transform="translate(176.153 -110.817)"/>
        <path id="Path_4196" data-name="Path 4196" d="M-80.371,234.591a4.14,4.14,0,0,1-1.944-.485,4.138,4.138,0,0,1-2.2-3.66V219.013h-69.993A20.511,20.511,0,0,1-175,198.524V132.46a20.512,20.512,0,0,1,20.489-20.489H-41.485A20.511,20.511,0,0,1-21,132.458v66.067a20.511,20.511,0,0,1-20.487,20.489H-56.027L-78.054,233.88A4.13,4.13,0,0,1-80.371,234.591ZM-154.51,115.778a16.7,16.7,0,0,0-16.682,16.682v66.064a16.7,16.7,0,0,0,16.679,16.682h73.8v15.24a.318.318,0,0,0,.18.3.32.32,0,0,0,.348-.018l22.992-15.519h15.707a16.7,16.7,0,0,0,16.679-16.682V132.458a16.7,16.7,0,0,0-16.679-16.679Z" transform="translate(174.999 -111.971)"/>
      </g>
    </g>
    <g id="Group_1978" data-name="Group 1978" transform="translate(-123.741 136.8)">
      <path id="Path-3" class="cls-2" d="M-127.91,135.347c-3.62-20.05-29-15.895-25.886,7.379A65.974,65.974,0,0,0-141.988,168.5a65.979,65.979,0,0,0,26.743-9.409C-96.334,145.17-110.962,124.056-127.91,135.347Z" transform="translate(155.951 -120.598)"/>
      <path id="Path_4197" data-name="Path 4197" class="cls-3" d="M-141.7,171.679l-.66-.878a68.316,68.316,0,0,1-12.148-26.52c-1.848-13.747,5.315-21.2,12.742-22.362,6.15-.982,13.522,2.335,16.26,11.625,8.6-4.47,16.093-1.457,19.667,3.648,4.3,6.145,3.911,16.458-7.128,24.586a68.379,68.379,0,0,1-27.642,9.767Zm1.975-46.113a9.519,9.519,0,0,0-1.452.114c-5.653.886-11.064,6.884-9.585,17.946a64.486,64.486,0,0,0,10.785,24,64.483,64.483,0,0,0,24.878-9c8.856-6.526,9.42-14.575,6.143-19.253-2.866-4.089-9.326-6.234-16.753-1.289l-2.411,1.607-.518-2.856C-130.069,128.912-135.128,125.566-139.728,125.566Z" transform="translate(154.805 -121.753)"/>
    </g>
  </g>
</svg>
