<svg xmlns="http://www.w3.org/2000/svg" width="262.508" height="437.568" viewBox="0 0 262.508 437.568">
  <g id="Airplane_Illustration" data-name="Airplane Illustration" transform="translate(-43.988 -74.093)">
    <line id="Line_16" data-name="Line 16" y2="181.146" transform="translate(44.988 159.831)" fill="none" stroke="#000" stroke-miterlimit="10" stroke-width="2" stroke-dasharray="50 3 6 20"/>
    <line id="Line_17" data-name="Line 17" y2="105.546" transform="translate(165.946 78.665)" fill="none" stroke="#000" stroke-miterlimit="10" stroke-width="2" stroke-dasharray="50 3 6 20"/>
    <line id="Line_18" data-name="Line 18" y2="29.391" transform="translate(290.65 240.981)" fill="none" stroke="#000" stroke-miterlimit="10" stroke-width="2" stroke-dasharray="50 3 6 20"/>
    <line id="Line_19" data-name="Line 19" y2="29.391" transform="translate(138.992 263.438)" fill="none" stroke="#000" stroke-miterlimit="10" stroke-width="2" stroke-dasharray="50 3 6 20"/>
    <circle id="Ellipse_3048" data-name="Ellipse 3048" cx="5.533" cy="5.533" r="5.533" transform="translate(234.612 335.443)" fill="#ff4c00" stroke="#1a1a1a" stroke-miterlimit="10" stroke-width="2"/>
    <line id="Line_20" data-name="Line 20" y2="67.628" transform="translate(190.766 244.318)" fill="none" stroke="#000" stroke-miterlimit="10" stroke-width="2" stroke-dasharray="50 3 6 20"/>
    <line id="Line_21" data-name="Line 21" y2="56.607" transform="translate(260.139 74.093)" fill="none" stroke="#000" stroke-miterlimit="10" stroke-width="2" stroke-dasharray="50 3 6 20"/>
    <circle id="Ellipse_3049" data-name="Ellipse 3049" cx="5.533" cy="5.533" r="5.533" transform="translate(294.429 101.602)" fill="#ff4c00" stroke="#1a1a1a" stroke-miterlimit="10" stroke-width="2"/>
    <g id="Group_1912" data-name="Group 1912" transform="translate(-0.001 171)">
      <path id="Path_4108" data-name="Path 4108" d="M165.948,340.66a1.086,1.086,0,0,1-.878-.439l-1.259-1.677a26.275,26.275,0,0,1-3.575-6.554l-.694-1.86L158.46,331.8a1.048,1.048,0,0,1-.883.478h-8.4a1.093,1.093,0,0,1-1.062-.83l-1.628-6.509-9.115,9.115a1.093,1.093,0,0,1-1.183.243L125.7,330.1a1.086,1.086,0,0,1-.688-1.017V318.6a1.093,1.093,0,0,1,.412-.857l10.972-8.778-16.7-1.856a1.1,1.1,0,0,1-.655-.314l-6.29-6.29a1.091,1.091,0,0,1-.321-.776V287.144a1.092,1.092,0,0,1,.388-.837l8-6.768V265.821a15.439,15.439,0,0,1,4.516-10.9,1.1,1.1,0,0,1,1.549,0,15.436,15.436,0,0,1,4.515,10.9v4.763l8.423-7.127,4.1-14.357a1.081,1.081,0,0,1,.369-.554l10.145-8.117,2.4-16.82a60.969,60.969,0,0,1,8.163-22.995,1.1,1.1,0,0,1,.377-.376,1.095,1.095,0,0,1,1.5.375,60.965,60.965,0,0,1,8.164,22.995l2.4,16.821,10.144,8.117a1.088,1.088,0,0,1,.369.553l4.1,14.358,8.424,7.128v-4.766a15.443,15.443,0,0,1,4.516-10.9,1.1,1.1,0,0,1,1.55,0,15.436,15.436,0,0,1,4.513,10.9l0,13.715,8,6.768a1.1,1.1,0,0,1,.388.837v12.58a1.093,1.093,0,0,1-.321.777l-6.289,6.289a1.091,1.091,0,0,1-.654.314l-16.7,1.856,10.973,8.78a1.086,1.086,0,0,1,.411.855v10.483a1.091,1.091,0,0,1-.688,1.018l-10.485,4.195a1.076,1.076,0,0,1-.407.079,1.088,1.088,0,0,1-.775-.321l-9.115-9.115-1.626,6.508a1.1,1.1,0,0,1-1.064.831h-8.387a1.1,1.1,0,0,1-.909-.486l-1.087-1.621-.682,1.828a26.2,26.2,0,0,1-3.574,6.552l-1.257,1.675a1.058,1.058,0,0,1-.219.219A1.078,1.078,0,0,1,165.948,340.66Z"/>
      <g id="Group_1881" data-name="Group 1881">
        <g id="Group_1880" data-name="Group 1880">
          <path id="Path_4109" data-name="Path 4109" d="M208.877,265.817v1.36h-6.19v-1.36a13.3,13.3,0,0,1,2.27-7.4l.83-1.23.83,1.23A13.293,13.293,0,0,1,208.877,265.817Z" fill="#ff895b"/>
        </g>
      </g>
      <g id="Group_1883" data-name="Group 1883">
        <g id="Group_1882" data-name="Group 1882">
          <path id="Path_4110" data-name="Path 4110" d="M208.877,269.367v8.32l-6.19-5.24v-3.08Z" fill="#fff2f9"/>
        </g>
      </g>
      <g id="Group_1885" data-name="Group 1885">
        <g id="Group_1884" data-name="Group 1884">
          <path id="Path_4111" data-name="Path 4111" d="M129.207,269.367v3.08l-6.19,5.24v-8.32Z" fill="#fff2f9"/>
        </g>
      </g>
      <g id="Group_1887" data-name="Group 1887">
        <g id="Group_1886" data-name="Group 1886">
          <path id="Path_4112" data-name="Path 4112" d="M129.207,265.817v1.36h-6.19v-1.36a13.293,13.293,0,0,1,2.26-7.4l.83-1.23.83,1.23A13.3,13.3,0,0,1,129.207,265.817Z" fill="#ff895b"/>
        </g>
      </g>
      <g id="Group_1889" data-name="Group 1889">
        <g id="Group_1888" data-name="Group 1888">
          <path id="Path_4113" data-name="Path 4113" d="M145.977,304.107v18.23l-9.65,9.65-9.12-3.65v-9.21Z" fill="#fff2f9"/>
        </g>
      </g>
      <g id="Group_1891" data-name="Group 1891">
        <g id="Group_1890" data-name="Group 1890">
          <path id="Path_4114" data-name="Path 4114" d="M204.687,319.127v9.21l-9.12,3.65-9.65-9.65v-18.23Z" fill="#fff2f9"/>
        </g>
      </g>
      <g id="Group_1893" data-name="Group 1893">
        <g id="Group_1892" data-name="Group 1892">
          <path id="Path_4115" data-name="Path 4115" d="M158.247,323.887l-1.54,6.19h-6.68l-1.55-6.19Z" fill="#ff895b"/>
        </g>
      </g>
      <g id="Group_1895" data-name="Group 1895">
        <g id="Group_1894" data-name="Group 1894">
          <path id="Path_4116" data-name="Path 4116" d="M183.407,323.887l-1.54,6.19h-6.68l-1.55-6.19Z" fill="#ff895b"/>
        </g>
      </g>
      <g id="Group_1897" data-name="Group 1897">
        <g id="Group_1896" data-name="Group 1896">
          <rect id="Rectangle_2661" data-name="Rectangle 2661" width="10.38" height="18.78" transform="translate(173.337 302.917)" fill="#ff895b"/>
        </g>
      </g>
      <g id="Group_1899" data-name="Group 1899">
        <g id="Group_1898" data-name="Group 1898">
          <rect id="Rectangle_2662" data-name="Rectangle 2662" width="10.38" height="18.78" transform="translate(148.177 302.917)" fill="#ff895b"/>
        </g>
      </g>
      <g id="Group_1901" data-name="Group 1901">
        <g id="Group_1900" data-name="Group 1900">
          <path id="Path_4117" data-name="Path 4117" d="M174.037,252.6l-.25,2.31a7.881,7.881,0,0,1-7.83,7.02c-.29,0-.58-.02-.88-.05a8,8,0,0,1-2.66-.78,7.841,7.841,0,0,1-4.31-6.19l-.25-2.31Z" fill="#fff2f9"/>
        </g>
      </g>
      <g id="Group_1903" data-name="Group 1903">
        <g id="Group_1902" data-name="Group 1902">
          <path id="Path_4118" data-name="Path 4118" d="M169.707,233.5l5.59,7.82-1.01,9.09h-16.68l-1.01-9.09,5.59-7.82a4.617,4.617,0,0,1,7.52,0Z" fill="#fff2f9"/>
        </g>
      </g>
      <g id="Group_1905" data-name="Group 1905">
        <g id="Group_1904" data-name="Group 1904">
          <path id="Path_4119" data-name="Path 4119" d="M217.267,287.657v9.64l-33.54-29.6-2.03-10.12a1.1,1.1,0,0,0-.3-.56l-5.08-5.08.98-8.82,8.66,6.93,4.1,14.34a1.106,1.106,0,0,0,.34.53Z" fill="#003ff8"/>
        </g>
      </g>
      <g id="Group_1907" data-name="Group 1907">
        <g id="Group_1906" data-name="Group 1906">
          <path id="Path_4120" data-name="Path 4120" d="M154.6,243.117l.98,8.82-5.08,5.08a1.028,1.028,0,0,0-.3.56l-2.03,10.12-33.54,29.6v-9.64l26.87-22.74a1.038,1.038,0,0,0,.34-.53l4.1-14.34Z" fill="#003ff8"/>
        </g>
      </g>
      <g id="Group_1909" data-name="Group 1909">
        <g id="Group_1908" data-name="Group 1908">
          <path id="Path_4121" data-name="Path 4121" d="M172.877,223.917l1.25,8.74-1.8.73-.83-1.17a6.843,6.843,0,0,0-5.56-2.85,6.862,6.862,0,0,0-5.54,2.85l-.83,1.17-1.8-.73,1.25-8.73a58.842,58.842,0,0,1,6.04-18.91l.89-1.71.89,1.71A58.864,58.864,0,0,1,172.877,223.917Z" fill="#ff895b"/>
        </g>
      </g>
      <g id="Group_1911" data-name="Group 1911">
        <g id="Group_1910" data-name="Group 1910">
          <path id="Path_4122" data-name="Path 4122" d="M216.767,299.777l-5.2,5.19-18.49,2.06-7.58-6.06a1.047,1.047,0,0,0-.68-.24h-5.19v-4.2h-2.2v4.2h-5.19a1.1,1.1,0,0,0-1.1,1.09v20.97a24.073,24.073,0,0,1-4.37,13.83l-.82,1.17-.82-1.17a24.073,24.073,0,0,1-4.37-13.83v-20.97a1.1,1.1,0,0,0-1.1-1.09h-5.19v-4.2h-2.2v4.2h-5.19a1.047,1.047,0,0,0-.68.24l-7.58,6.06-18.49-2.06-5.2-5.19,34.82-30.73a1.028,1.028,0,0,0,.3-.56l2.03-10.16,3.48-3.47.43,1.7a10.056,10.056,0,0,0,7.85,7.37l.81.15v13.68h2.2v-13.68l.81-.15a10.056,10.056,0,0,0,7.85-7.37l.43-1.7,3.48,3.47,2.03,10.16a1.053,1.053,0,0,0,.35.61Z" fill="#00caac"/>
        </g>
      </g>
    </g>
    <g id="Group_1925" data-name="Group 1925" transform="translate(0 30)">
      <path id="Path_4123" data-name="Path 4123" d="M254.651,155.713V164.1l-5.5,5.007v-1.768a3.808,3.808,0,0,0-7.616,0v8.7l-4.927,4.488v-3.3a1,1,0,0,0-2,0v5.562c0,.01.006.018.006.028V187.1a1,1,0,0,0,.293.707,1.022,1.022,0,0,0,.085.076,1,1,0,0,0,.849.191l18.806-4.393v.948l-7.21,7.384a1,1,0,0,0-.049,1.344l3.751,4.44c.019.022.038.043.058.063a1,1,0,0,0,1.3.094l5.44-4.055h4.391l5.439,4.055a1,1,0,0,0,1.362-.157l3.751-4.44a1,1,0,0,0-.049-1.344l-7.217-7.384v-.949l18.811,4.394a1,1,0,0,0,1.228-.974V177.23a1,1,0,1,0-2,0v3.3l-4.921-4.483v-8.705a3.778,3.778,0,0,0-1.114-2.693l0,0a3.806,3.806,0,0,0-6.5,2.7v1.768l-5.5-5.013v-8.383c0-2.627-4.113-11.408-4.581-12.4a1,1,0,0,0-1.809,0C258.762,144.3,254.65,153.086,254.651,155.713Z"/>
      <g id="Group_1914" data-name="Group 1914">
        <g id="Group_1913" data-name="Group 1913">
          <path id="Path_4124" data-name="Path 4124" d="M276.737,167.337v6.89l-3.61-3.3v-3.59a1.776,1.776,0,0,1,1.8-1.8,1.944,1.944,0,0,1,1.28.52A1.826,1.826,0,0,1,276.737,167.337Z" fill="#fff2f9"/>
        </g>
      </g>
      <g id="Group_1916" data-name="Group 1916">
        <g id="Group_1915" data-name="Group 1915">
          <path id="Path_4125" data-name="Path 4125" d="M247.157,167.337v3.59l-3.62,3.3v-6.89a1.81,1.81,0,0,1,3.62,0Z" fill="#fff2f9"/>
        </g>
      </g>
      <g id="Group_1918" data-name="Group 1918">
        <g id="Group_1917" data-name="Group 1917">
          <path id="Path_4126" data-name="Path 4126" d="M283.657,183.237v2.6l-18.04-4.21V166.8l5.79,5.28c.01,0,.01,0,.01.01a.01.01,0,0,1,.01.01l5.6,5.1c.01,0,.01,0,.01.01Z" fill="#003ff8"/>
        </g>
      </g>
      <g id="Group_1920" data-name="Group 1920">
        <g id="Group_1919" data-name="Group 1919">
          <path id="Path_4127" data-name="Path 4127" d="M254.647,166.807v14.82l-18.03,4.21v-2.6l6.62-6.03a.01.01,0,0,1,.01-.01l5.6-5.1.02-.02Z" fill="#003ff8"/>
        </g>
      </g>
      <g id="Group_1922" data-name="Group 1922">
        <g id="Group_1921" data-name="Group 1921">
          <path id="Path_4128" data-name="Path 4128" d="M263.457,154.717h-6.64a63.708,63.708,0,0,1,3.32-8.58A66.529,66.529,0,0,1,263.457,154.717Z" fill="#ff895b"/>
        </g>
      </g>
      <g id="Group_1924" data-name="Group 1924">
        <g id="Group_1923" data-name="Group 1923">
          <path id="Path_4129" data-name="Path 4129" d="M263.907,185.737l6.87,7.02-2.56,3.03-4.95-3.69a1.028,1.028,0,0,0-.6-.2h-5.05a.984.984,0,0,0-.6.2l-4.95,3.69-2.56-3.03,6.86-7.02a1.017,1.017,0,0,0,.28-.7v-28.32h6.97v28.32A1.027,1.027,0,0,0,263.907,185.737Z" fill="#00caac"/>
        </g>
      </g>
    </g>
  </g>
</svg>
