<svg xmlns="http://www.w3.org/2000/svg" width="53" height="53" viewBox="0 0 53 53">
  <g id="LinkedIn" transform="translate(1 0.882)">
    <rect id="Rectangle_2507" data-name="Rectangle 2507" width="51" height="51" rx="25.5" transform="translate(0 0.117)" fill="none" stroke="#000" stroke-miterlimit="10" stroke-width="2"/>
    <g id="Group_772" data-name="Group 772" transform="translate(13.462 11.318)">
      <g id="Group_771" data-name="Group 771">
        <rect id="Rectangle_2508" data-name="Rectangle 2508" width="5.29" height="17.089" transform="translate(0.508 8.544)"/>
        <path id="Path_2885" data-name="Path 2885" d="M329,197.163a3.153,3.153,0,1,0-3.128-3.154A3.142,3.142,0,0,0,329,197.163Z" transform="translate(-325.874 -190.857)"/>
      </g>
      <path id="Path_2886" data-name="Path 2886" d="M337.783,205.47c0-2.4,1.105-3.833,3.222-3.833,1.946,0,2.881,1.374,2.881,3.833v8.971h5.265v-10.82c0-4.577-2.595-6.791-6.219-6.791a5.957,5.957,0,0,0-5.149,2.823v-2.3h-5.074v17.088h5.074Z" transform="translate(-323.529 -188.808)"/>
    </g>
  </g>
</svg>
