<svg id="Megaphone" xmlns="http://www.w3.org/2000/svg" width="184.454" height="130.662" viewBox="0 0 184.454 130.662">
  <path id="Path_4054" data-name="Path 4054" d="M96.267,238.046l13.446,44.376H87.224L73.76,237.3h3.225c6,0,10.33,0,17.652.608Z" transform="translate(-37.277 -154.275)" fill="#ff5534"/>
  <path id="Path_4055" data-name="Path 4055" d="M25.543,164.724v34l-2.009.331a22.369,22.369,0,0,1-3.068.3c-3.249,0-3.345-2.4-3.345-2.671V166.21l.71-.7a5.425,5.425,0,0,1,3.959-1.456,8.276,8.276,0,0,1,1.937.223Z" transform="translate(-14.713 -125.094)" fill="#ff5534"/>
  <path id="Path_4056" data-name="Path 4056" d="M210.348,107.308V211.39H200.12V107.308a2.982,2.982,0,0,1,3.008-3.008h4.211A2.978,2.978,0,0,1,210.348,107.308Z" transform="translate(-87.615 -101.292)" fill="#ff5534"/>
  <path id="Path_4057" data-name="Path 4057" d="M131.779,114.3v93.993l-3.893-3.062c-25.377-19.938-50.844-19.938-80.336-19.938A11.731,11.731,0,0,1,36.12,173.861V150.4c0-6.859,4.915-12.033,11.431-12.033,31.5,0,54.111-1.474,80.378-21.177Z" transform="translate(-22.283 -105.276)" fill="#ffd400"/>
  <path id="Path_4058" data-name="Path 4058" d="M291.724,192.3c1.5,0,1.66.842,1.66,1.2s-.162,1.2-1.66,1.2h-36.1c-.71,0-.746-1-.746-1.2s.036-1.2.746-1.2Z" transform="translate(-109.43 -136.348)" stroke="#000" stroke-width="1"/>
  <path id="Path_4059" data-name="Path 4059" d="M286.367,252.615c.776.553.65.945.59,1.137a1.717,1.717,0,0,1-1.468,1.113,1,1,0,0,1-.547-.162l-30.557-23.367a1.25,1.25,0,0,1-.259-1.492c.289-.8.933-1.293,1.269-1.293a1.046,1.046,0,0,1,.59.349l.1.1,30.238,23.584Z" transform="translate(-109.079 -150.789)" stroke="#000" stroke-width="1"/>
  <path id="Path_4060" data-name="Path 4060" d="M256.087,142.26l-.1.108a1.246,1.246,0,0,1-.746.415,1.536,1.536,0,0,1-1.155-1.047.985.985,0,0,1,.295-1.2L285.146,117l.108-.108a1.067,1.067,0,0,1,.6-.355c.367,0,.939.505,1.107,1.131.108.409.012.614-.391.842l-.15.09Z" transform="translate(-109.079 -106.168)" stroke="#000" stroke-width="1"/>
  <path id="Path_4061" data-name="Path 4061" d="M138.861,105.316V206.992c0,2.984-2.7,5.415-6.016,5.415h-4.211a6.023,6.023,0,0,1-6.04-5.156l-.12-.86-.65-.59c-12.255-11.028-26.412-17.9-43.287-21.033l-3.923-.722,13.224,42.313c.7,2.461.385,3,.373,3.02,0,0-.2.265-1.3.475H63.272l-.337.108c-.517-.012-2.142-1.041-2.954-4.3l-.036-.12L46.793,182.325H45.006c-7.731,0-12.839,0-18.151-5.312l-.7-.7H19.136c-3.315,0-6.016-2.431-6.016-5.415V140.812c0-4.187,3.772-4.813,6.016-4.813H26.26l.722-.842a15.368,15.368,0,0,1,11.407-5.776c33.607,0,55.982-1.618,83.35-24.011l.7-.572.15-.9c.421-2.539,3.141-4.6,6.046-4.6h4.211A5.815,5.815,0,0,1,138.861,105.316ZM135.852,209.4V105.316a2.978,2.978,0,0,0-3.008-3.008h-4.211a2.982,2.982,0,0,0-3.008,3.008V209.4Zm-13.236-7.081V108.324l-3.85,2.888C92.5,130.916,69.89,132.39,38.388,132.39c-6.516,0-11.431,5.174-11.431,12.033v23.464a11.731,11.731,0,0,0,11.431,11.431c29.492,0,54.959,0,80.336,19.938Zm-37.06,25.13L72.11,183.071l-1.63-.138c-7.322-.608-11.654-.608-17.652-.608H49.6l13.464,45.122ZM23.949,172.933v-34l-1.817-.451a8.276,8.276,0,0,0-1.937-.223,5.425,5.425,0,0,0-3.959,1.456l-.71.7v30.479c0,.271.1,2.671,3.345,2.671a22.369,22.369,0,0,0,3.068-.3Z" transform="translate(-13.12 -99.3)"/>
</svg>
