<svg width="219" height="187" viewBox="0 0 219 187" fill="none" xmlns="http://www.w3.org/2000/svg">
<g clip-path="url(#clip0)">
<path d="M84.4345 122.142L112.418 159.114L91.3215 166.903L63.0623 129.238L66.0876 128.121C71.7162 126.043 75.7782 124.543 82.8576 122.577L84.4345 122.142Z" fill="#FF5534"/>
<path d="M23.9666 97.4138L35.743 129.309L33.973 130.316C33.0803 130.827 32.1534 131.276 31.1988 131.66C28.151 132.785 27.2296 130.567 27.1358 130.313L16.5806 101.725L17.0042 100.822C17.3293 100.175 17.7808 99.5991 18.3321 99.129C18.8834 98.6589 19.5232 98.304 20.2138 98.0852C20.8249 97.8572 21.4607 97.7022 22.1082 97.6235L23.9666 97.4138Z" fill="#FF5534"/>
<path d="M117.3 27.1216L153.35 124.761L143.756 128.303L107.705 30.6642C107.565 30.2939 107.499 29.8994 107.513 29.5036C107.527 29.1079 107.619 28.7188 107.785 28.3592C107.951 27.9995 108.186 27.6764 108.478 27.4088C108.77 27.1412 109.112 26.9344 109.485 26.8005L113.435 25.342C113.806 25.2009 114.2 25.135 114.596 25.1484C114.992 25.1617 115.382 25.254 115.742 25.4197C116.102 25.5854 116.425 25.8213 116.692 26.1136C116.96 26.4058 117.167 26.7485 117.3 27.1216V27.1216Z" fill="#FF5534"/>
<path d="M105.924 34.5282L138.48 122.703L133.768 121.179C103.056 111.265 79.1652 120.086 51.4988 130.301C48.6508 131.271 45.5389 131.11 42.8063 129.851C40.0738 128.592 37.9294 126.331 36.8166 123.535L28.6906 101.527C26.3148 95.0921 29.1335 88.536 35.2462 86.2791C64.7963 75.3686 85.4971 66.1541 103.314 38.5728L105.924 34.5282Z" fill="#FFD400"/>
<path d="M190.47 53.3365C191.877 52.8169 192.319 53.5514 192.443 53.8872C192.567 54.223 192.707 55.069 191.302 55.5879L157.436 68.0917C156.77 68.3376 156.39 67.412 156.321 67.2243C156.251 67.0367 155.939 66.0862 156.605 65.8402L190.47 53.3365Z" fill="black" stroke="black"/>
<path d="M201.663 98.1047C202.583 98.3547 202.601 98.766 202.611 98.9669C202.61 99.2932 202.516 99.6125 202.341 99.8875C202.165 100.162 201.915 100.382 201.619 100.52C201.437 100.587 201.239 100.6 201.05 100.557L164.291 89.2203C164.038 89.1152 163.827 88.9301 163.69 88.6935C163.553 88.4569 163.497 88.1818 163.531 87.9104C163.525 87.0598 163.959 86.3742 164.274 86.2579C164.506 86.222 164.743 86.2653 164.948 86.3809L165.077 86.4401L201.611 98.0908L201.663 98.1047Z" fill="black" stroke="black"/>
<path d="M150.49 46.9276L150.433 47.0635C150.33 47.3382 150.133 47.5675 149.877 47.7112C149.606 47.7521 149.329 47.7196 149.075 47.6173C148.821 47.5149 148.598 47.3463 148.431 47.1291C148.271 46.971 148.17 46.763 148.145 46.5396C148.12 46.3163 148.172 46.091 148.292 45.9012L169.001 13.1661L169.065 13.0274C169.147 12.803 169.302 12.6125 169.505 12.4866C169.849 12.3595 170.56 12.6351 170.935 13.1641C171.178 13.5104 171.159 13.736 170.86 14.0894L170.75 14.2258L150.49 46.9276Z" fill="black" stroke="black"/>
<path d="M120.122 26.0794L155.339 121.462C156.372 124.261 154.682 127.477 151.571 128.625L147.621 130.084C146.257 130.608 144.749 130.618 143.378 130.113C142.007 129.608 140.866 128.622 140.169 127.339L139.758 126.574L138.944 126.245C123.628 120.145 107.967 118.602 91.0514 121.507L87.1211 122.189L114.182 157.302C115.691 159.369 115.583 159.983 115.578 160.006C115.578 160.006 115.482 160.324 114.523 160.902L92.3475 169.09L92.0688 169.308C91.5796 169.476 89.6988 169.073 87.8083 166.297L87.7329 166.197L60.4262 130.211L58.7498 130.83C51.4973 133.507 46.7055 135.277 39.8824 132.133L38.9833 131.719L32.3988 134.15C29.289 135.298 25.9132 133.953 24.8796 131.154L14.4589 102.931C13.0086 99.0027 16.3303 97.109 18.4354 96.3317L25.1184 93.8642L25.5041 92.8243C26.1968 90.7295 27.3323 88.8085 28.8336 87.1918C30.3349 85.575 32.1666 84.3005 34.2044 83.4548C65.7311 71.8145 86.1607 62.5467 104.078 32.0605L104.537 31.2815L104.366 30.3853C103.881 27.8576 105.719 24.9821 108.444 23.9759L112.395 22.5173C113.133 22.2148 113.926 22.0676 114.724 22.0848C115.522 22.1021 116.308 22.2834 117.033 22.6176C117.758 22.9517 118.406 23.4315 118.938 24.0271C119.469 24.6227 119.872 25.3213 120.122 26.0794V26.0794ZM153.35 124.763L117.299 27.1216C117.166 26.7486 116.959 26.406 116.692 26.1138C116.424 25.8216 116.101 25.5857 115.741 25.42C115.381 25.2542 114.992 25.1619 114.596 25.1485C114.2 25.135 113.806 25.2007 113.435 25.3417L109.485 26.8002C109.112 26.9341 108.77 27.1409 108.478 27.4085C108.186 27.6761 107.951 27.9992 107.785 28.3589C107.619 28.7185 107.527 29.1076 107.513 29.5034C107.5 29.8991 107.565 30.2936 107.705 30.6639L143.756 128.305L153.35 124.763ZM138.481 122.705L105.924 34.5279L103.313 38.5707C85.4976 66.1526 64.7977 75.3667 35.2457 86.2779C29.133 88.5348 26.3144 95.0909 28.6901 101.525L36.8172 123.537C37.9303 126.332 40.0748 128.593 42.8074 129.852C45.5401 131.111 48.652 131.272 51.4999 130.301C79.1663 120.086 103.057 111.265 133.769 121.179L138.481 122.705ZM112.419 159.115L84.4344 122.142L82.8575 122.577C75.7782 124.542 71.7143 126.043 66.0876 128.12L63.0594 129.238L91.3187 166.904L112.419 159.115ZM35.7431 129.312L23.9667 97.417L22.106 97.6233C21.4586 97.702 20.8227 97.857 20.2116 98.085C19.521 98.3038 18.8812 98.6588 18.3299 99.1289C17.7787 99.599 17.3271 100.175 17.002 100.822L16.5784 101.725L27.1353 130.317C27.2292 130.571 28.1542 132.788 31.1984 131.664C32.1529 131.28 33.0798 130.831 33.9726 130.32L35.7431 129.312Z" fill="black"/>
</g>
<defs>
<clipPath id="clip0">
<rect width="184.454" height="130.662" fill="white" transform="translate(0.0805664 63.9883) rotate(-20.2652)"/>
</clipPath>
</defs>
</svg>
