<svg xmlns="http://www.w3.org/2000/svg" width="30.4" height="29.585" viewBox="0 0 30.4 29.585">
  <g transform="translate(-19.877 -20.285)">
    <path id="Path_2914" data-name="Path 2914" d="M687.687,287.506a1.107,1.107,0,0,1-.783-1.89l11.281-11.28H673.693a1.113,1.113,0,0,1,0-2.225h24.493l-11.28-11.28a1.131,1.131,0,0,1,0-1.587,1.105,1.105,0,0,1,1.536-.025l13.212,13.213a1.105,1.105,0,0,1,0,1.563l-13.188,13.186A1.1,1.1,0,0,1,687.687,287.506Z" transform="translate(-652.203 -238.136)"/>
    <path id="Path_2914_-_Outline" data-name="Path 2914 - Outline" d="M687.687,288.006a1.607,1.607,0,0,1-1.138-2.743l10.429-10.427H673.693a1.613,1.613,0,0,1,0-3.225h23.286l-10.426-10.426a1.632,1.632,0,0,1,0-2.293,1.605,1.605,0,0,1,2.234-.037l.011.011,13.212,13.213a1.605,1.605,0,0,1,0,2.27l-13.189,13.187A1.6,1.6,0,0,1,687.687,288.006Zm-13.994-15.395a.613.613,0,0,0,0,1.225h25.7L687.257,285.97a.607.607,0,1,0,.859.858L701.3,273.642a.605.605,0,0,0,0-.855L688.1,259.579a.605.605,0,0,0-.836.019.628.628,0,0,0,0,.881l12.132,12.132Z" transform="translate(-652.203 -238.136)"/>
  </g>
</svg>
