<svg xmlns="http://www.w3.org/2000/svg" width="618.026" height="219.471" viewBox="0 0 618.026 219.471">
  <defs>
    <style>
      .cls-1 {
        fill: #f6ece0;
      }
    </style>
  </defs>
  <g id="Squiggly_Line" data-name="Squiggly Line" transform="translate(-4.625 -117.404)">
    <g id="Group_1809" data-name="Group 1809" transform="translate(4.625 119.404)">
      <path id="Path_4005" data-name="Path 4005" class="cls-1" d="M578.5,126.568a25.906,25.906,0,0,1-14.17-3.906,49.88,49.88,0,0,1-9.352-8.233c-5.373-5.608-10.448-10.905-20.634-10.905s-15.258,5.3-20.63,10.905a49.872,49.872,0,0,1-9.35,8.233,27.651,27.651,0,0,1-28.337,0,49.871,49.871,0,0,1-9.35-8.233c-5.372-5.608-10.446-10.9-20.628-10.9s-15.258,5.3-20.63,10.905a49.872,49.872,0,0,1-9.35,8.233,27.649,27.649,0,0,1-28.335,0,49.873,49.873,0,0,1-9.35-8.232c-5.372-5.608-10.446-10.906-20.63-10.906s-15.255,5.3-20.626,10.905a49.869,49.869,0,0,1-9.349,8.233,27.643,27.643,0,0,1-28.332,0,49.871,49.871,0,0,1-9.349-8.233c-5.371-5.608-10.445-10.905-20.626-10.905s-15.252,5.3-20.622,10.9a49.864,49.864,0,0,1-9.348,8.233,27.641,27.641,0,0,1-28.331,0,49.867,49.867,0,0,1-9.349-8.232c-5.372-5.608-10.445-10.906-20.628-10.906s-15.256,5.3-20.628,10.906a49.868,49.868,0,0,1-9.349,8.232,27.643,27.643,0,0,1-28.332,0,49.871,49.871,0,0,1-9.349-8.233c-5.371-5.608-10.445-10.905-20.626-10.905s-15.255,5.3-20.626,10.905a49.871,49.871,0,0,1-9.349,8.233,25.892,25.892,0,0,1-14.166,3.906A25.892,25.892,0,0,1,34.6,122.663a49.873,49.873,0,0,1-9.349-8.232c-5.372-5.608-10.446-10.906-20.628-10.906v-4a25.9,25.9,0,0,1,14.167,3.906,49.871,49.871,0,0,1,9.349,8.233c5.371,5.608,10.445,10.9,20.626,10.9s15.255-5.3,20.626-10.905a49.871,49.871,0,0,1,9.349-8.233,25.892,25.892,0,0,1,14.166-3.906,25.892,25.892,0,0,1,14.166,3.906,49.871,49.871,0,0,1,9.349,8.233c5.371,5.608,10.445,10.905,20.626,10.905s15.255-5.3,20.626-10.9a49.871,49.871,0,0,1,9.349-8.233,27.647,27.647,0,0,1,28.335,0,49.871,49.871,0,0,1,9.349,8.233c5.371,5.608,10.445,10.9,20.626,10.9s15.253-5.3,20.624-10.905a49.862,49.862,0,0,1,9.347-8.232,27.639,27.639,0,0,1,28.33,0,49.869,49.869,0,0,1,9.349,8.233c5.371,5.608,10.445,10.905,20.626,10.905s15.255-5.3,20.626-10.905a49.871,49.871,0,0,1,9.349-8.233,27.647,27.647,0,0,1,28.335,0,49.868,49.868,0,0,1,9.35,8.233c5.372,5.608,10.446,10.9,20.628,10.9s15.258-5.3,20.63-10.905a49.873,49.873,0,0,1,9.35-8.233,27.649,27.649,0,0,1,28.335,0,49.871,49.871,0,0,1,9.35,8.232c5.372,5.608,10.446,10.906,20.63,10.906s15.258-5.3,20.63-10.905a49.873,49.873,0,0,1,9.35-8.233,27.656,27.656,0,0,1,28.338,0,49.88,49.88,0,0,1,9.352,8.233c5.373,5.608,10.448,10.905,20.634,10.905s15.261-5.3,20.634-10.906a49.874,49.874,0,0,1,9.351-8.232,25.9,25.9,0,0,1,14.169-3.905v4c-10.184,0-15.259,5.3-20.632,10.9a49.874,49.874,0,0,1-9.352,8.233A25.905,25.905,0,0,1,578.5,126.568Z" transform="translate(-4.625 -101.525)"/>
    </g>
    <g id="Group_1810" data-name="Group 1810" transform="translate(4.625 157.89)">
      <path id="Path_4006" data-name="Path 4006" class="cls-1" d="M578.5,147.174a25.906,25.906,0,0,1-14.17-3.905,49.88,49.88,0,0,1-9.352-8.233c-5.373-5.608-10.448-10.905-20.634-10.905s-15.258,5.3-20.63,10.905a49.872,49.872,0,0,1-9.35,8.233,27.651,27.651,0,0,1-28.337,0,49.871,49.871,0,0,1-9.35-8.233c-5.372-5.608-10.446-10.9-20.628-10.9s-15.258,5.3-20.63,10.905a49.872,49.872,0,0,1-9.35,8.233,27.65,27.65,0,0,1-28.335,0,49.874,49.874,0,0,1-9.35-8.232c-5.372-5.608-10.446-10.906-20.63-10.906s-15.255,5.3-20.626,10.905a49.873,49.873,0,0,1-9.349,8.233,27.644,27.644,0,0,1-28.332,0,49.869,49.869,0,0,1-9.349-8.233c-5.371-5.608-10.445-10.905-20.626-10.905s-15.252,5.3-20.622,10.9a49.865,49.865,0,0,1-9.348,8.233,27.642,27.642,0,0,1-28.331,0,49.867,49.867,0,0,1-9.349-8.233c-5.372-5.608-10.445-10.905-20.628-10.905s-15.256,5.3-20.628,10.905a49.867,49.867,0,0,1-9.349,8.233,27.644,27.644,0,0,1-28.332,0,49.872,49.872,0,0,1-9.349-8.233c-5.371-5.608-10.445-10.905-20.626-10.905s-15.255,5.3-20.626,10.905a49.872,49.872,0,0,1-9.349,8.233,25.892,25.892,0,0,1-14.166,3.906A25.892,25.892,0,0,1,34.6,143.269a49.87,49.87,0,0,1-9.349-8.233c-5.372-5.608-10.446-10.905-20.628-10.905v-4a25.9,25.9,0,0,1,14.167,3.906,49.871,49.871,0,0,1,9.349,8.233c5.371,5.608,10.445,10.9,20.626,10.9s15.255-5.3,20.626-10.905a49.866,49.866,0,0,1,9.349-8.233,25.892,25.892,0,0,1,14.166-3.906,25.892,25.892,0,0,1,14.166,3.906,49.866,49.866,0,0,1,9.349,8.233c5.371,5.608,10.445,10.905,20.626,10.905s15.255-5.3,20.626-10.9a49.871,49.871,0,0,1,9.349-8.233,27.647,27.647,0,0,1,28.335,0,49.871,49.871,0,0,1,9.349,8.233c5.371,5.608,10.445,10.9,20.626,10.9s15.253-5.3,20.624-10.905a49.863,49.863,0,0,1,9.347-8.232,27.639,27.639,0,0,1,28.33,0,49.867,49.867,0,0,1,9.349,8.233c5.371,5.608,10.445,10.905,20.626,10.905s15.255-5.3,20.626-10.905a49.872,49.872,0,0,1,9.349-8.233,27.647,27.647,0,0,1,28.335,0,49.868,49.868,0,0,1,9.35,8.233c5.372,5.608,10.446,10.9,20.628,10.9s15.258-5.3,20.63-10.905a49.873,49.873,0,0,1,9.35-8.233,27.649,27.649,0,0,1,28.335,0,49.872,49.872,0,0,1,9.35,8.232c5.372,5.608,10.446,10.906,20.63,10.906s15.258-5.3,20.63-10.905a49.873,49.873,0,0,1,9.35-8.233,27.656,27.656,0,0,1,28.338,0,49.88,49.88,0,0,1,9.352,8.233c5.373,5.608,10.448,10.905,20.634,10.905s15.261-5.3,20.634-10.906a49.874,49.874,0,0,1,9.351-8.232,25.9,25.9,0,0,1,14.169-3.905v4c-10.184,0-15.259,5.3-20.632,10.905a49.878,49.878,0,0,1-9.352,8.233A25.905,25.905,0,0,1,578.5,147.174Z" transform="translate(-4.625 -122.131)"/>
    </g>
    <g id="Group_1811" data-name="Group 1811" transform="translate(4.625 196.375)">
      <path id="Path_4007" data-name="Path 4007" class="cls-1" d="M578.5,167.78a25.906,25.906,0,0,1-14.17-3.905,49.876,49.876,0,0,1-9.352-8.233c-5.373-5.608-10.448-10.905-20.634-10.905s-15.258,5.3-20.63,10.905a49.872,49.872,0,0,1-9.35,8.233,27.651,27.651,0,0,1-28.337,0,49.871,49.871,0,0,1-9.35-8.233c-5.372-5.608-10.446-10.9-20.628-10.9s-15.258,5.3-20.63,10.905a49.872,49.872,0,0,1-9.35,8.233,27.65,27.65,0,0,1-28.335,0,49.874,49.874,0,0,1-9.35-8.232c-5.372-5.608-10.446-10.906-20.63-10.906s-15.255,5.3-20.626,10.905a49.867,49.867,0,0,1-9.349,8.233,27.644,27.644,0,0,1-28.332,0,49.872,49.872,0,0,1-9.349-8.233c-5.371-5.608-10.445-10.905-20.626-10.905s-15.252,5.3-20.622,10.9a49.865,49.865,0,0,1-9.348,8.233,27.642,27.642,0,0,1-28.331,0,49.867,49.867,0,0,1-9.349-8.233c-5.372-5.608-10.445-10.905-20.628-10.905s-15.256,5.3-20.628,10.905a49.867,49.867,0,0,1-9.349,8.233,27.644,27.644,0,0,1-28.332,0,49.872,49.872,0,0,1-9.349-8.233c-5.371-5.608-10.445-10.905-20.626-10.905s-15.255,5.3-20.626,10.905a49.872,49.872,0,0,1-9.349,8.233,25.892,25.892,0,0,1-14.166,3.906A25.892,25.892,0,0,1,34.6,163.875a49.873,49.873,0,0,1-9.349-8.232c-5.372-5.608-10.446-10.906-20.628-10.906v-4a25.9,25.9,0,0,1,14.167,3.906,49.872,49.872,0,0,1,9.349,8.233c5.371,5.608,10.445,10.9,20.626,10.9s15.255-5.3,20.626-10.905a49.872,49.872,0,0,1,9.349-8.233,25.892,25.892,0,0,1,14.166-3.906,25.892,25.892,0,0,1,14.166,3.906,49.872,49.872,0,0,1,9.349,8.233c5.371,5.608,10.445,10.905,20.626,10.905s15.255-5.3,20.626-10.9a49.872,49.872,0,0,1,9.349-8.233,27.647,27.647,0,0,1,28.335,0,49.872,49.872,0,0,1,9.349,8.233c5.371,5.608,10.445,10.9,20.626,10.9s15.253-5.3,20.624-10.905a49.863,49.863,0,0,1,9.347-8.232,27.64,27.64,0,0,1,28.33,0,49.867,49.867,0,0,1,9.349,8.233c5.371,5.608,10.445,10.905,20.626,10.905s15.255-5.3,20.626-10.905a49.872,49.872,0,0,1,9.349-8.233,27.647,27.647,0,0,1,28.335,0,49.868,49.868,0,0,1,9.35,8.233c5.372,5.608,10.446,10.9,20.628,10.9s15.258-5.3,20.63-10.905a49.873,49.873,0,0,1,9.35-8.233,27.65,27.65,0,0,1,28.335,0,49.872,49.872,0,0,1,9.35,8.232c5.372,5.608,10.446,10.906,20.63,10.906s15.258-5.3,20.63-10.905a49.873,49.873,0,0,1,9.35-8.233,27.656,27.656,0,0,1,28.338,0,49.88,49.88,0,0,1,9.352,8.233c5.373,5.608,10.448,10.905,20.634,10.905s15.261-5.3,20.634-10.906a49.873,49.873,0,0,1,9.351-8.232,25.9,25.9,0,0,1,14.169-3.905v4c-10.184,0-15.259,5.3-20.632,10.9a49.875,49.875,0,0,1-9.352,8.233A25.905,25.905,0,0,1,578.5,167.78Z" transform="translate(-4.625 -142.737)"/>
    </g>
    <g id="Group_1819" data-name="Group 1819" transform="translate(4.625 234.861)">
      <path id="Path_4005-2" data-name="Path 4005" class="cls-1" d="M578.5,126.568a25.906,25.906,0,0,1-14.17-3.906,49.88,49.88,0,0,1-9.352-8.233c-5.373-5.608-10.448-10.905-20.634-10.905s-15.258,5.3-20.63,10.905a49.872,49.872,0,0,1-9.35,8.233,27.651,27.651,0,0,1-28.337,0,49.871,49.871,0,0,1-9.35-8.233c-5.372-5.608-10.446-10.9-20.628-10.9s-15.258,5.3-20.63,10.905a49.872,49.872,0,0,1-9.35,8.233,27.649,27.649,0,0,1-28.335,0,49.873,49.873,0,0,1-9.35-8.232c-5.372-5.608-10.446-10.906-20.63-10.906s-15.255,5.3-20.626,10.905a49.869,49.869,0,0,1-9.349,8.233,27.643,27.643,0,0,1-28.332,0,49.871,49.871,0,0,1-9.349-8.233c-5.371-5.608-10.445-10.905-20.626-10.905s-15.252,5.3-20.622,10.9a49.864,49.864,0,0,1-9.348,8.233,27.641,27.641,0,0,1-28.331,0,49.867,49.867,0,0,1-9.349-8.232c-5.372-5.608-10.445-10.906-20.628-10.906s-15.256,5.3-20.628,10.906a49.868,49.868,0,0,1-9.349,8.232,27.643,27.643,0,0,1-28.332,0,49.871,49.871,0,0,1-9.349-8.233c-5.371-5.608-10.445-10.905-20.626-10.905s-15.255,5.3-20.626,10.905a49.871,49.871,0,0,1-9.349,8.233,25.892,25.892,0,0,1-14.166,3.906A25.892,25.892,0,0,1,34.6,122.663a49.873,49.873,0,0,1-9.349-8.232c-5.372-5.608-10.446-10.906-20.628-10.906v-4a25.9,25.9,0,0,1,14.167,3.906,49.871,49.871,0,0,1,9.349,8.233c5.371,5.608,10.445,10.9,20.626,10.9s15.255-5.3,20.626-10.905a49.871,49.871,0,0,1,9.349-8.233,25.892,25.892,0,0,1,14.166-3.906,25.892,25.892,0,0,1,14.166,3.906,49.871,49.871,0,0,1,9.349,8.233c5.371,5.608,10.445,10.905,20.626,10.905s15.255-5.3,20.626-10.9a49.871,49.871,0,0,1,9.349-8.233,27.647,27.647,0,0,1,28.335,0,49.871,49.871,0,0,1,9.349,8.233c5.371,5.608,10.445,10.9,20.626,10.9s15.253-5.3,20.624-10.905a49.862,49.862,0,0,1,9.347-8.232,27.639,27.639,0,0,1,28.33,0,49.869,49.869,0,0,1,9.349,8.233c5.371,5.608,10.445,10.905,20.626,10.905s15.255-5.3,20.626-10.905a49.871,49.871,0,0,1,9.349-8.233,27.647,27.647,0,0,1,28.335,0,49.868,49.868,0,0,1,9.35,8.233c5.372,5.608,10.446,10.9,20.628,10.9s15.258-5.3,20.63-10.905a49.873,49.873,0,0,1,9.35-8.233,27.649,27.649,0,0,1,28.335,0,49.871,49.871,0,0,1,9.35,8.232c5.372,5.608,10.446,10.906,20.63,10.906s15.258-5.3,20.63-10.905a49.873,49.873,0,0,1,9.35-8.233,27.656,27.656,0,0,1,28.338,0,49.88,49.88,0,0,1,9.352,8.233c5.373,5.608,10.448,10.905,20.634,10.905s15.261-5.3,20.634-10.906a49.874,49.874,0,0,1,9.351-8.232,25.9,25.9,0,0,1,14.169-3.905v4c-10.184,0-15.259,5.3-20.632,10.9a49.874,49.874,0,0,1-9.352,8.233A25.905,25.905,0,0,1,578.5,126.568Z" transform="translate(-4.625 -101.525)"/>
    </g>
    <g id="Group_1820" data-name="Group 1820" transform="translate(4.625 273.347)">
      <path id="Path_4006-2" data-name="Path 4006" class="cls-1" d="M578.5,147.174a25.906,25.906,0,0,1-14.17-3.905,49.88,49.88,0,0,1-9.352-8.233c-5.373-5.608-10.448-10.905-20.634-10.905s-15.258,5.3-20.63,10.905a49.872,49.872,0,0,1-9.35,8.233,27.651,27.651,0,0,1-28.337,0,49.871,49.871,0,0,1-9.35-8.233c-5.372-5.608-10.446-10.9-20.628-10.9s-15.258,5.3-20.63,10.905a49.872,49.872,0,0,1-9.35,8.233,27.65,27.65,0,0,1-28.335,0,49.874,49.874,0,0,1-9.35-8.232c-5.372-5.608-10.446-10.906-20.63-10.906s-15.255,5.3-20.626,10.905a49.873,49.873,0,0,1-9.349,8.233,27.644,27.644,0,0,1-28.332,0,49.869,49.869,0,0,1-9.349-8.233c-5.371-5.608-10.445-10.905-20.626-10.905s-15.252,5.3-20.622,10.9a49.865,49.865,0,0,1-9.348,8.233,27.642,27.642,0,0,1-28.331,0,49.867,49.867,0,0,1-9.349-8.233c-5.372-5.608-10.445-10.905-20.628-10.905s-15.256,5.3-20.628,10.905a49.867,49.867,0,0,1-9.349,8.233,27.644,27.644,0,0,1-28.332,0,49.872,49.872,0,0,1-9.349-8.233c-5.371-5.608-10.445-10.905-20.626-10.905s-15.255,5.3-20.626,10.905a49.872,49.872,0,0,1-9.349,8.233,25.892,25.892,0,0,1-14.166,3.906A25.892,25.892,0,0,1,34.6,143.269a49.87,49.87,0,0,1-9.349-8.233c-5.372-5.608-10.446-10.905-20.628-10.905v-4a25.9,25.9,0,0,1,14.167,3.906,49.871,49.871,0,0,1,9.349,8.233c5.371,5.608,10.445,10.9,20.626,10.9s15.255-5.3,20.626-10.905a49.866,49.866,0,0,1,9.349-8.233,25.892,25.892,0,0,1,14.166-3.906,25.892,25.892,0,0,1,14.166,3.906,49.866,49.866,0,0,1,9.349,8.233c5.371,5.608,10.445,10.905,20.626,10.905s15.255-5.3,20.626-10.9a49.871,49.871,0,0,1,9.349-8.233,27.647,27.647,0,0,1,28.335,0,49.871,49.871,0,0,1,9.349,8.233c5.371,5.608,10.445,10.9,20.626,10.9s15.253-5.3,20.624-10.905a49.863,49.863,0,0,1,9.347-8.232,27.639,27.639,0,0,1,28.33,0,49.867,49.867,0,0,1,9.349,8.233c5.371,5.608,10.445,10.905,20.626,10.905s15.255-5.3,20.626-10.905a49.872,49.872,0,0,1,9.349-8.233,27.647,27.647,0,0,1,28.335,0,49.868,49.868,0,0,1,9.35,8.233c5.372,5.608,10.446,10.9,20.628,10.9s15.258-5.3,20.63-10.905a49.873,49.873,0,0,1,9.35-8.233,27.649,27.649,0,0,1,28.335,0,49.872,49.872,0,0,1,9.35,8.232c5.372,5.608,10.446,10.906,20.63,10.906s15.258-5.3,20.63-10.905a49.873,49.873,0,0,1,9.35-8.233,27.656,27.656,0,0,1,28.338,0,49.88,49.88,0,0,1,9.352,8.233c5.373,5.608,10.448,10.905,20.634,10.905s15.261-5.3,20.634-10.906a49.874,49.874,0,0,1,9.351-8.232,25.9,25.9,0,0,1,14.169-3.905v4c-10.184,0-15.259,5.3-20.632,10.905a49.878,49.878,0,0,1-9.352,8.233A25.905,25.905,0,0,1,578.5,147.174Z" transform="translate(-4.625 -122.131)"/>
    </g>
    <g id="Group_1821" data-name="Group 1821" transform="translate(4.625 311.832)">
      <path id="Path_4007-2" data-name="Path 4007" class="cls-1" d="M578.5,167.78a25.906,25.906,0,0,1-14.17-3.905,49.876,49.876,0,0,1-9.352-8.233c-5.373-5.608-10.448-10.905-20.634-10.905s-15.258,5.3-20.63,10.905a49.872,49.872,0,0,1-9.35,8.233,27.651,27.651,0,0,1-28.337,0,49.871,49.871,0,0,1-9.35-8.233c-5.372-5.608-10.446-10.9-20.628-10.9s-15.258,5.3-20.63,10.905a49.872,49.872,0,0,1-9.35,8.233,27.65,27.65,0,0,1-28.335,0,49.874,49.874,0,0,1-9.35-8.232c-5.372-5.608-10.446-10.906-20.63-10.906s-15.255,5.3-20.626,10.905a49.867,49.867,0,0,1-9.349,8.233,27.644,27.644,0,0,1-28.332,0,49.872,49.872,0,0,1-9.349-8.233c-5.371-5.608-10.445-10.905-20.626-10.905s-15.252,5.3-20.622,10.9a49.865,49.865,0,0,1-9.348,8.233,27.642,27.642,0,0,1-28.331,0,49.867,49.867,0,0,1-9.349-8.233c-5.372-5.608-10.445-10.905-20.628-10.905s-15.256,5.3-20.628,10.905a49.867,49.867,0,0,1-9.349,8.233,27.644,27.644,0,0,1-28.332,0,49.872,49.872,0,0,1-9.349-8.233c-5.371-5.608-10.445-10.905-20.626-10.905s-15.255,5.3-20.626,10.905a49.872,49.872,0,0,1-9.349,8.233,25.892,25.892,0,0,1-14.166,3.906A25.892,25.892,0,0,1,34.6,163.875a49.873,49.873,0,0,1-9.349-8.232c-5.372-5.608-10.446-10.906-20.628-10.906v-4a25.9,25.9,0,0,1,14.167,3.906,49.872,49.872,0,0,1,9.349,8.233c5.371,5.608,10.445,10.9,20.626,10.9s15.255-5.3,20.626-10.905a49.872,49.872,0,0,1,9.349-8.233,25.892,25.892,0,0,1,14.166-3.906,25.892,25.892,0,0,1,14.166,3.906,49.872,49.872,0,0,1,9.349,8.233c5.371,5.608,10.445,10.905,20.626,10.905s15.255-5.3,20.626-10.9a49.872,49.872,0,0,1,9.349-8.233,27.647,27.647,0,0,1,28.335,0,49.872,49.872,0,0,1,9.349,8.233c5.371,5.608,10.445,10.9,20.626,10.9s15.253-5.3,20.624-10.905a49.863,49.863,0,0,1,9.347-8.232,27.64,27.64,0,0,1,28.33,0,49.867,49.867,0,0,1,9.349,8.233c5.371,5.608,10.445,10.905,20.626,10.905s15.255-5.3,20.626-10.905a49.872,49.872,0,0,1,9.349-8.233,27.647,27.647,0,0,1,28.335,0,49.868,49.868,0,0,1,9.35,8.233c5.372,5.608,10.446,10.9,20.628,10.9s15.258-5.3,20.63-10.905a49.873,49.873,0,0,1,9.35-8.233,27.65,27.65,0,0,1,28.335,0,49.872,49.872,0,0,1,9.35,8.232c5.372,5.608,10.446,10.906,20.63,10.906s15.258-5.3,20.63-10.905a49.873,49.873,0,0,1,9.35-8.233,27.656,27.656,0,0,1,28.338,0,49.88,49.88,0,0,1,9.352,8.233c5.373,5.608,10.448,10.905,20.634,10.905s15.261-5.3,20.634-10.906a49.873,49.873,0,0,1,9.351-8.232,25.9,25.9,0,0,1,14.169-3.905v4c-10.184,0-15.259,5.3-20.632,10.9a49.875,49.875,0,0,1-9.352,8.233A25.905,25.905,0,0,1,578.5,167.78Z" transform="translate(-4.625 -142.737)"/>
    </g>
  </g>
</svg>
