<svg xmlns="http://www.w3.org/2000/svg" width="254.729" height="259.926" viewBox="0 0 254.729 259.926">
  <g id="What_is_Storm_the_World_" data-name="What is Storm the World?" transform="translate(-774.271 -1013.5)">
    <g id="Eye_2" data-name="Eye 2" transform="translate(-866.73 1013.015)">
      <g id="Group_1869" data-name="Group 1869" transform="translate(1781.577 143.985)">
        <circle id="path-3" cx="43.894" cy="43.894" r="43.894" transform="translate(0 0)" fill="#3bfdd1"/>
        <circle id="path-3-2" data-name="path-3" cx="43.894" cy="43.894" r="43.894" transform="translate(0 0)" fill="#00caac" stroke="#000" stroke-miterlimit="10" stroke-width="4"/>
        <circle id="Oval" cx="24.925" cy="24.925" r="24.925" transform="translate(11.339 11.225)" fill="#fff" stroke="#1a1a1a" stroke-miterlimit="10" stroke-width="4"/>
        <path id="Path_4090" data-name="Path 4090" d="M1884.048,208.11a6.96,6.96,0,0,1-4.54-12.235,15.482,15.482,0,1,0,9.815,9.815A6.945,6.945,0,0,1,1884.048,208.11Z" transform="translate(-1838.353 -174.431)" fill="#1f1f1f" fill-rule="evenodd"/>
      </g>
      <path id="Path_4091" data-name="Path 4091" d="M2003.01,317.981s11.69,11.231,12.444,20.655v3.179" transform="translate(-142.503 -103.666)" fill="none" stroke="#000" stroke-linecap="round" stroke-miterlimit="10" stroke-width="4" fill-rule="evenodd"/>
      <circle id="Ellipse_3044" data-name="Ellipse 3044" cx="3.627" cy="3.627" r="3.627" transform="translate(1867.751 237.779)" fill="#00caac" stroke="#000" stroke-miterlimit="10" stroke-width="4"/>
      <path id="Path_4092" data-name="Path 4092" d="M1786.924,221.861s-14.533-6.774-14.113-27.97l-.009-5.876" transform="translate(-5.346 -26.233)" fill="none" stroke="#000" stroke-linecap="round" stroke-miterlimit="10" stroke-width="4" fill-rule="evenodd"/>
      <circle id="Ellipse_3045" data-name="Ellipse 3045" cx="3.627" cy="3.627" r="3.627" transform="translate(1763.829 153.294)" fill="#00caac" stroke="#000" stroke-miterlimit="10" stroke-width="4"/>
      <path id="Path_4093" data-name="Path 4093" d="M1888.737,361.169l5.112,26.639H1878.6" transform="translate(-68.378 -129.396)" fill="none" stroke="#000" stroke-linecap="round" stroke-miterlimit="10" stroke-width="4" fill-rule="evenodd"/>
      <path id="Path_4094" data-name="Path 4094" d="M1931.278,361.169l8.518,26.639h12.371" transform="translate(-99.765 -129.396)" fill="none" stroke="#000" stroke-linecap="round" stroke-miterlimit="10" stroke-width="4" fill-rule="evenodd"/>
    </g>
    <g id="Eye_1" data-name="Eye 1" transform="translate(776.271 1158)">
      <g id="Group_1870" data-name="Group 1870" transform="translate(3.664 0)">
        <ellipse id="path-3-3" data-name="path-3" cx="44.343" cy="44.343" rx="44.343" ry="44.343" transform="translate(0)" fill="#3bfdd1"/>
        <ellipse id="path-3-4" data-name="path-3" cx="44.343" cy="44.343" rx="44.343" ry="44.343" transform="translate(0)" fill="#ff895b" stroke="#000" stroke-miterlimit="10" stroke-width="4"/>
        <ellipse id="Oval-2" data-name="Oval" cx="25.18" cy="25.18" rx="25.18" ry="25.18" transform="translate(26.871 11.34)" fill="#fff" stroke="#1a1a1a" stroke-miterlimit="10" stroke-width="4"/>
        <path id="Path_4095" data-name="Path 4095" d="M630.48,213.626a7.031,7.031,0,0,1-4.587-12.361,15.64,15.64,0,1,0,9.915,9.915A7.016,7.016,0,0,1,630.48,213.626Z" transform="translate(-568.901 -179.602)" fill="#1f1f1f" fill-rule="evenodd"/>
      </g>
      <path id="Path_4096" data-name="Path 4096" d="M738.638,306.5s-20.438,15.329-22.4,26.729" transform="translate(-712.57 -242.337)" fill="none" stroke="#000" stroke-linecap="round" stroke-miterlimit="10" stroke-width="4" fill-rule="evenodd"/>
      <ellipse id="Ellipse_3046" data-name="Ellipse 3046" cx="3.664" cy="3.664" rx="3.664" ry="3.664" transform="translate(0 91.091)" fill="#ff895b" stroke="#000" stroke-miterlimit="10" stroke-width="4"/>
      <path id="Path_4097" data-name="Path 4097" d="M567.4,350.27s6.9,9.393,15.478,9.053" transform="translate(-496.027 -268.232)" fill="none" stroke="#000" stroke-linecap="round" stroke-miterlimit="10" stroke-width="4" fill-rule="evenodd"/>
      <ellipse id="Ellipse_3047" data-name="Ellipse 3047" cx="3.664" cy="3.664" rx="3.664" ry="3.664" transform="translate(85.023 88.687)" fill="#ff895b" stroke="#000" stroke-miterlimit="10" stroke-width="4"/>
      <path id="Path_4098" data-name="Path 4098" d="M592.478,365.753s12.312,15.9,13.629,22.519a.578.578,0,0,0,1,.274c1.84-2.068,6.073-6.572,8.628-7.3" transform="translate(-539.133 -277.392)" fill="none" stroke="#000" stroke-linecap="round" stroke-miterlimit="10" stroke-width="4" fill-rule="evenodd"/>
      <path id="Path_4099" data-name="Path 4099" d="M691.988,365.753s-6.556,13.964-15.977,17.436a.464.464,0,0,0-.236.7c1.212,1.729,5.434,7.281,9.46,6.879" transform="translate(-649.365 -277.392)" fill="none" stroke="#000" stroke-linecap="round" stroke-miterlimit="10" stroke-width="4" fill-rule="evenodd"/>
    </g>
    <g id="Gaming_Bubble" data-name="Gaming Bubble" transform="translate(1248.799 902.156)">
      <g id="Group_1969" data-name="Group 1969" transform="translate(-373.799 111.344)">
        <g id="Group_1968" data-name="Group 1968">
          <path id="Path_4191" data-name="Path 4191" d="M-354.464,112.093a18.587,18.587,0,0,0-18.585,18.588v66.066a18.582,18.582,0,0,0,18.583,18.583h71.9v13.334a2.241,2.241,0,0,0,3.5,1.858l22.51-15.192h15.123a18.582,18.582,0,0,0,18.583-18.583V130.678a18.583,18.583,0,0,0-18.583-18.585Z" transform="translate(374.953 -110.192)" fill="#00caac"/>
          <path id="Path_4192" data-name="Path 4192" d="M-279.174,233.963a4.14,4.14,0,0,1-1.944-.485,4.141,4.141,0,0,1-2.2-3.66V218.386h-69.993A20.51,20.51,0,0,1-373.8,197.9V131.833a20.512,20.512,0,0,1,20.489-20.489h113.022A20.511,20.511,0,0,1-219.8,131.83V197.9a20.512,20.512,0,0,1-20.489,20.489h-14.539l-22.027,14.867A4.138,4.138,0,0,1-279.174,233.963ZM-353.31,115.151a16.7,16.7,0,0,0-16.682,16.682V197.9a16.7,16.7,0,0,0,16.679,16.682h73.8v15.24a.318.318,0,0,0,.18.3.307.307,0,0,0,.345-.018l22.994-15.519h15.7A16.7,16.7,0,0,0-223.606,197.9V131.83a16.7,16.7,0,0,0-16.682-16.679Z" transform="translate(373.799 -111.344)"/>
        </g>
      </g>
      <g id="Group_1970" data-name="Group 1970" transform="translate(-326.888 139.579)">
        <rect id="Rectangle_2664" data-name="Rectangle 2664" width="53.2" height="30.967" rx="13" transform="translate(0 16.477) rotate(-18.042)" fill="#003ff8"/>
        <path id="Path_4193" data-name="Path 4193" d="M-337.076,164.97a17.418,17.418,0,0,1-16.545-12.006,17.263,17.263,0,0,1,1.048-13.257,17.28,17.28,0,0,1,10.1-8.661l21.141-6.881a17.4,17.4,0,0,1,21.916,11.143,17.258,17.258,0,0,1-1.051,13.26,17.255,17.255,0,0,1-10.095,8.658l-21.139,6.886A17.388,17.388,0,0,1-337.076,164.97Zm21.116-37.856a13.579,13.579,0,0,0-4.2.668l-21.139,6.884a13.49,13.49,0,0,0-7.881,6.765A13.478,13.478,0,0,0-350,151.783a13.493,13.493,0,0,0,6.764,7.884,13.508,13.508,0,0,0,10.354.825l21.139-6.886a13.48,13.48,0,0,0,7.881-6.765,13.476,13.476,0,0,0,.825-10.354A13.606,13.606,0,0,0-315.96,127.114Z" transform="translate(356.608 -121.176)" fill="#18191f"/>
      </g>
      <g id="Group_1973" data-name="Group 1973" transform="translate(-313.15 153.4)">
        <g id="Group_1972" data-name="Group 1972">
          <g id="Group_1971" data-name="Group 1971">
            <path id="Path_4194" data-name="Path 4194" d="M-343.62,129.716l-2.592.745,1.491,5.184-5.184,1.491.745,2.592,5.184-1.491,1.491,5.184,2.592-.745-1.491-5.184L-336.2,136l-.745-2.592-5.184,1.491Z" transform="translate(349.905 -125.139)" fill="#fdd301"/>
            <circle id="Ellipse_3050" data-name="Ellipse 3050" cx="2.697" cy="2.697" r="2.697" transform="translate(27.304 6.285)" fill="#fdd301"/>
            <circle id="Ellipse_3051" data-name="Ellipse 3051" cx="2.697" cy="2.697" r="2.697" transform="translate(19.884)" fill="#fdd301"/>
          </g>
        </g>
      </g>
    </g>
  </g>
</svg>
